<?xml version="1.0" standalone="no"?>
<!DOCTYPE svg PUBLIC "-//W3C//DTD SVG 1.1//EN" "http://www.w3.org/Graphics/SVG/1.1/DTD/svg11.dtd" >
<!--
2013-9-30: Created.
-->
<svg>
<metadata>
Created by iconfont
</metadata>
<defs>

<font id="iconfont" horiz-adv-x="1024" >
  <font-face
    font-family="iconfont"
    font-weight="500"
    font-stretch="normal"
    units-per-em="1024"
    ascent="896"
    descent="-128"
  />
    <missing-glyph />
    
    <glyph glyph-name="x" unicode="x" horiz-adv-x="1001"
d="M281 543q-27 -1 -53 -1h-83q-18 0 -36.5 -6t-32.5 -18.5t-23 -32t-9 -45.5v-76h912v41q0 16 -0.5 30t-0.5 18q0 13 -5 29t-17 29.5t-31.5 22.5t-49.5 9h-133v-97h-438v97zM955 310v-52q0 -23 0.5 -52t0.5 -58t-10.5 -47.5t-26 -30t-33 -16t-31.5 -4.5q-14 -1 -29.5 -0.5
t-29.5 0.5h-32l-45 128h-439l-44 -128h-29h-34q-20 0 -45 1q-25 0 -41 9.5t-25.5 23t-13.5 29.5t-4 30v167h911zM163 247q-12 0 -21 -8.5t-9 -21.5t9 -21.5t21 -8.5q13 0 22 8.5t9 21.5t-9 21.5t-22 8.5zM316 123q-8 -26 -14 -48q-5 -19 -10.5 -37t-7.5 -25t-3 -15t1 -14.5
t9.5 -10.5t21.5 -4h37h67h81h80h64h36q23 0 34 12t2 38q-5 13 -9.5 30.5t-9.5 34.5q-5 19 -11 39h-368zM336 498v228q0 11 2.5 23t10 21.5t20.5 15.5t34 6h188q31 0 51.5 -14.5t20.5 -52.5v-227h-327z" />
    

    
    <glyph glyph-name="search" unicode="&#58880;" d="M919.887 20.258l-212.079 216.658c-3.504 3.58-7.53 6.293-11.827 8.157 45.562 61.135 72.617 137.453 72.617 220.241 0 200.966-159.412 363.836-356.064 363.836-196.652 0-356.057-162.871-356.057-363.836 0-200.97 159.405-363.837 356.058-363.837 90.255 0 172.665 34.311 235.419 90.863 1.737-3.475 4.019-6.735 6.863-9.639l212.027-216.657c14.62-14.942 38.372-14.942 53.043 0 14.62 14.942 14.62 39.275 0 54.217zM412.536 158.895c-165.591 0-299.865 137.2-299.865 306.418 0 169.27 134.274 306.412 299.865 306.412 165.596 0 299.865-137.142 299.865-306.412 0-169.218-134.269-306.418-299.865-306.418z"  horiz-adv-x="1000" />

    
    <glyph glyph-name="home-i" unicode="&#58914;" d="M953.711 308.608c-7.672-11.715-22.467-14.368-33.081-5.856l-397.719 332.533c-0.194 0.111-0.36 0.206-0.524 0.316-3.409 2.708-7.48 4.166-11.715 4.166s-8.331-1.457-11.768-4.166c-0.056-0.055-0.166-0.111-0.249-0.138l-397.967-332.711c-10.561-8.511-25.354-5.858-33.054 5.856-7.644 11.715-5.335 28.104 5.252 36.684l398.297 332.877c0.194 0.083 0.385 0.262 0.523 0.413 11.466 8.979 24.914 13.723 38.965 13.723 13.475 0 26.427-4.455 37.537-12.745 0.66-0.399 1.32-0.867 1.952-1.391l150.696-126.743v16.086c0 19.716 14.354 35.722 32.091 35.722h61.267c17.738 0 32.147-16.005 32.147-35.722v-116.651l122.097-105.569c10.614-8.58 12.898-24.969 5.252-36.684zM478.773 524.944c0.109 0.109 0.193 0.136 0.275 0.274 9.294 7.287 20.238 11.206 31.623 11.206 11.441-0.055 22.385-3.946 31.707-11.344 0 0 0.138-0.082 0.193-0.136l276.008-234.128c6.105-5.018 9.736-12.924 9.736-21.256v-296.455c0-50.695-37.097-91.904-82.746-91.904h-143.325v220.999c0 38.992-28.435 70.506-63.469 70.506h-65.833c-35.034 0-63.44-31.515-63.44-70.506v-220.999h-133.756c-45.594 0-82.772 41.209-82.772 91.904v296.455c0 8.332 3.601 16.238 9.789 21.256l276.009 234.128z"  horiz-adv-x="1024" />

    
    <glyph glyph-name="down" unicode="&#58905;" d="M545.428 117.29899999999998l462.982 462.985c19.229 19.225 19.229 50.399 0 69.627-19.228 19.229-50.399 19.229-69.627 0l-428.171-428.171-424.654 424.657c-19.23 19.227-50.401 19.228-69.629 0-19.227-19.228-19.229-50.401 0-69.629l455.652-455.652c0.641-0.641 1.297-1.257 1.962-1.854 0.598-0.667 1.213-1.324 1.855-1.963 19.227-19.227 50.4-19.227 69.628 0.001z"  horiz-adv-x="1024" />

    
    <glyph glyph-name="check" unicode="&#58980;" d="M887.904 597.792c-12.864 12.064-33.152 11.488-45.216-1.408L415.936 142.016l-233.12 229.696C170.208 384.128 149.952 384 137.536 371.392c-12.416-12.576-12.256-32.864 0.352-45.248l256.48-252.672c0.096-0.096 0.224-0.128 0.32-0.224 0.096-0.096 0.128-0.224 0.224-0.32 2.016-1.92 4.448-3.008 6.784-4.288 1.152-0.672 2.144-1.664 3.36-2.144 3.776-1.472 7.776-2.24 11.744-2.24 4.192 0 8.384 0.832 12.288 2.496 1.312 0.544 2.336 1.664 3.552 2.368 2.4 1.408 4.896 2.592 6.944 4.672 0.096 0.096 0.128 0.256 0.224 0.352 0.064 0.096 0.192 0.128 0.288 0.224l449.184 478.208C901.44 565.408 900.768 585.664 887.904 597.792z"  horiz-adv-x="1024" />

    
    <glyph glyph-name="error" unicode="&#58982;" d="M557.312 382.752l265.28 263.904c12.544 12.48 12.608 32.704 0.128 45.248-12.512 12.576-32.704 12.608-45.248 0.128l-265.344-263.936-263.040 263.84c-12.448 12.48-32.704 12.544-45.248 0.064-12.512-12.48-12.544-32.736-0.064-45.28l262.976-263.776-265.152-263.744c-12.544-12.48-12.608-32.704-0.128-45.248 6.24-6.272 14.464-9.44 22.688-9.44 8.16 0 16.32 3.104 22.56 9.312l265.216 263.808 265.44-266.24c6.24-6.272 14.432-9.408 22.656-9.408 8.192 0 16.352 3.136 22.592 9.344 12.512 12.48 12.544 32.704 0.064 45.248l-265.376 266.176z"  horiz-adv-x="1024" />

    
    <glyph glyph-name="the-time" unicode="&#59120;" d="M517.333 853.333c-122.517 0-237.696-47.723-324.309-134.357-86.635-86.613-134.357-201.813-134.357-324.309s47.723-237.696 134.357-324.309c86.613-86.635 201.792-134.357 324.309-134.357s237.696 47.723 324.331 134.357c86.635 86.613 134.357 201.792 134.357 324.309s-47.723 237.696-134.357 324.309c-86.635 86.635-201.813 134.357-324.331 134.357zM801.109 110.891c-75.797-75.819-176.576-117.568-283.776-117.568-107.2 0-207.979 41.749-283.776 117.568-75.819 75.797-117.547 176.576-117.547 283.776s41.749 207.979 117.568 283.776c75.797 75.819 176.576 117.568 283.776 117.568 107.2 0 207.979-41.749 283.776-117.568 75.819-75.797 117.568-176.576 117.568-283.776s-41.771-207.979-117.589-283.776zM524.672 349.568v296.427c0 15.829-12.843 28.672-28.672 28.672s-28.672-12.843-28.672-28.672v-315.328c0-11.456 6.827-21.845 17.387-26.347M746.667 330.667c0-17.664-14.336-32-32-32h-213.333c-17.664 0-32 14.336-32 32v0c0 17.664 14.336 32 32 32h213.333c17.664 0 32-14.336 32-32v0z"  horiz-adv-x="1024" />

    
    <glyph glyph-name="type-civil" unicode="&#58927;" d="M955.876 554.98c0 0 0 12.263 0 40.999 0 118.421-99.462 214.366-222.172 214.366-203.575 0-220.946-185.263-220.946-185.263s-20.078 185.263-225.814 185.263c-122.673 0-222.155-95.945-222.155-214.366 0-28.735 0-40.999 0-40.999s-9.609-296.437 446.742-595.767c0-0.513 0-1.318 0-1.648 0.44 0.294 0.806 0.55 1.226 0.843 0.423-0.294 0.787-0.55 1.228-0.843 0 0.33 0 1.135 0 1.648 456.317 299.329 441.891 595.767 441.891 595.767zM221.871 349.143c10.709-16.032-174.050 195.477-45.521 356.105 149.945 128.524 251.696-56.228 251.696-56.228s-356.12 206.204-206.175-299.878z"  horiz-adv-x="1024" />

    
    <glyph glyph-name="law" unicode="&#58881;" d="M771.594 701.475l-123.581-274.387h-35.944l131.85 290.644h-203.625v-678.994c42.019-1.631 255.994-71.044 255.994-71.044v-34.931h-575.381v37.125c0 0 214.256 68.85 247.162 68.85v678.938h-192.431l131.85-290.644h-36l-123.581 274.444-123.694-274.387h-35.944l132.638 293.794v33.806h221.287c0 44.325 29.756 80.55 64.406 80.55 36.675 0 64.406-38.25 64.406-80.55h225.338v-29.025l134.887-298.631h-36.056l-123.581 274.444zM409.737 389.063c0-88.2-61.256-168.525-161.831-168.525-98.381 0-161.831 80.325-161.831 168.525-0.056-0.169 323.663-0.169 323.663 0zM614.263 389.063c0-0.112 323.663-0.112 323.663 0 0-88.2-61.2-168.525-161.831-168.525-98.325 0-161.831 80.269-161.831 168.525z"  horiz-adv-x="1024" />

    
    <glyph glyph-name="back2" unicode="&#58896;" d="M792.777 19.006l-446.638 365.31 446.638 365.341c22.397 18.312 25.689 51.259 7.407 73.657-18.281 22.366-51.259 25.631-73.657 7.349l-495.782-405.549c-2.762-2.235-5.378-4.762-7.73-7.671-0.029 0-0.029-0.060-0.088-0.090-2.204-2.703-4.115-5.612-5.702-8.64-0.94-1.793-1.529-3.674-2.264-5.526-0.499-1.293-1.175-2.556-1.557-3.909-0.617-1.999-0.881-4.114-1.234-6.172-0.234-1.263-0.587-2.468-0.705-3.733-0.176-1.763-0.059-3.556-0.059-5.349 0.030-1.587-0.117-3.146 0.059-4.733 0.147-1.556 0.587-2.998 0.824-4.497 0.353-1.82 0.587-3.644 1.116-5.436 0.53-1.94 1.47-3.764 2.264-5.645 0.559-1.233 0.912-2.556 1.557-3.762 1.587-3.058 3.526-5.966 5.761-8.7 0-0.030 0-0.058 0.058-0.088 0.235-0.294 0.53-0.47 0.764-0.793 1.999-2.323 4.115-4.527 6.584-6.555l1.176-0.969c0 0 0 0 0.029-0.030l494.929-404.817c9.758-7.964 21.456-11.816 33.124-11.816 15.137 0 30.185 6.555 40.531 19.193 18.282 22.369 14.99 55.347-7.407 73.628z"  horiz-adv-x="1024" />

    
    <glyph glyph-name="Shake-hands" unicode="&#58966;" d="M913.808 292.978c-0.582 0.729-0.801 1.602-1.383 2.257 68.594 62.259 109.299 153.355 109.299 249.401 0 181.535-140.393 329.21-312.898 329.21-72.527 0-140.393-27.088-195.953-74.493-0.437 0.437-0.655 1.020-1.092 1.456-55.414 47.114-125.247 73.036-196.608 73.036-172.506 0-312.898-147.747-312.898-329.21 0-99.25 42.671-191.948 114.761-254.207-27.962-35.462-27.307-87.891 4.078-121.169 13.981-14.709 32.258-22.5 51.628-25.632 1.747-20.316 8.811-40.195 23.447-55.633 14.491-15.364 33.497-23.375 53.74-26.142 2.038-19.733 8.884-39.030 23.156-54.176 15.219-16.093 35.462-24.54 56.944-26.724 2.622-18.422 9.102-36.409 22.5-50.608 17.404-18.496 40.778-28.69 65.755-28.69s48.351 10.194 65.755 28.69l32.258 34.151 39.904-42.235c17.039-17.986 39.977-27.962 64.444-27.962s47.331 9.977 64.444 27.962c14.199 15.073 21.117 34.224 23.375 53.885 20.098 2.548 39.103 10.485 53.521 25.777 14.637 15.583 21.699 35.535 23.666 55.924 19.588 2.839 38.083 10.631 51.991 25.486 15.583 16.457 23.156 37.792 24.394 59.42 18.277 3.423 35.462 10.777 48.642 24.685 30.656 32.477 32.113 82.43 7.5 118.475-0.801 2.476-2.694 4.66-4.369 7.063zM948.907 544.636c0-76.167-33.132-147.383-87.6-196.026l-268.989 275.689c8.156 14.272 6.481 32.477-5.971 44.201-14.637 13.836-37.647 13.107-51.483-1.456l-92.479-97.867c-8.010-8.519-14.928-8.519-23.010 0-7.646 8.083-7.646 22.355 0 30.437l118.911 125.974c0.51 0.51 1.092 0.655 1.53 1.092 45.22 47.914 105.295 74.347 169.010 74.347 132.383 0 240.080-115.052 240.080-256.391zM174.052 246.884l127.577 135.15c4.515 4.733 9.393 5.753 12.743 5.753 4.733 0 9.321-2.038 12.816-5.753 6.991-7.355 6.991-20.316 0-27.67l-127.504-135.077c-6.991-7.427-18.715-7.355-25.632-0.073-6.917 7.355-6.917 20.389 0 27.67zM249.274 165.474l127.577 135.15c3.495 3.714 8.010 5.753 12.816 5.753 3.349 0 8.301-1.020 12.816-5.825 6.991-7.355 6.991-20.243 0-27.598l-127.577-135.15c-10.923-11.505-19.661-6.335-25.632 0.073-6.991 7.355-6.991 20.243 0 27.598zM326.096 85.229l127.504 135.077c3.495 3.714 8.083 5.753 12.816 5.753s9.321-2.038 12.743-5.68c6.991-7.427 6.991-20.389 0-27.744l-127.504-135.077c-6.991-7.427-18.715-7.355-25.632-0.073-6.917 7.427-6.917 20.462 0.073 27.744zM405.613-19.847c-6.991 7.427-6.991 20.389 0 27.744l127.577 135.077c3.495 3.714 8.010 5.753 12.743 5.753s9.248-2.038 12.816-5.825c6.991-7.355 6.991-20.243 0-27.67l-127.577-135.077c-5.971-6.335-14.709-11.505-25.559 0zM857.957 217.321c-8.083-8.666-14.928-8.666-23.010 0-13.836 14.563-36.918 15.364-51.483 1.456-14.563-13.762-15.219-36.846-1.456-51.483 0.291-0.291 0.655-0.364 0.946-0.655 0.729-0.946 1.020-2.112 1.893-2.986 7.646-8.083 7.646-22.283-0.073-30.511-4.005-4.223-8.374-5.098-11.36-5.098h-0.073c-2.986 0-7.427 0.946-11.433 5.17-13.836 14.637-36.846 15.364-51.483 1.53-11.069-10.413-14.127-25.996-9.102-39.394 1.602-4.66 4.15-9.102 7.718-12.961 7.646-8.156 7.646-22.574 0.073-30.583-4.078-4.369-8.519-5.17-11.505-5.17 0.582-0.146-7.427 0.801-11.433 5.098-0.219 0.219-0.51 0.291-0.729 0.51-0.146 0.146-0.146 0.291-0.219 0.364-13.762 14.491-36.846 15.292-51.483 1.456-14.563-13.762-15.219-36.846-1.456-51.483 7.646-8.083 7.646-22.283 0-30.365-8.083-8.666-14.928-8.666-23.010 0l-42.745 45.293 45.147 47.841c33.35 35.171 33.35 92.551 0.073 127.649-15.219 16.165-35.826 23.957-56.87 25.996-2.548 18.641-9.102 36.991-22.719 51.409-14.418 15.219-33.642 22.574-53.449 25.195-1.893 20.025-8.884 39.685-23.375 54.977-13.908 14.782-32.404 21.918-51.555 24.903-1.602 20.607-8.738 40.778-23.593 56.507-34.88 36.846-96.774 36.846-131.509 0l-81.847-86.726c-57.017 48.497-91.75 120.732-91.75 199.375 0 141.34 107.697 256.391 240.080 256.391 52.939 0 102.746-18.35 144.762-52.356l-93.425-99.033c-34.006-35.972-34.006-94.445 0-130.417 17.039-18.059 39.904-27.962 64.444-27.962s47.405 9.977 64.444 28.035l48.060 50.899 314.573-322.582c7.573-8.156 7.573-22.209-0.073-30.292z"  horiz-adv-x="1024" />

    
    <glyph glyph-name="bofang" unicode="&#59274;" d="M103.217 876.083c0 6.286 3.313 12.375 9.142 15.629 5.908 3.275 12.816 2.853 18.084-0.479l781.996-492.077c4.99-3.174 8.343-8.761 8.343-15.15 0-6.406-3.353-11.996-8.343-15.17l-781.996-492.074c-5.268-3.333-12.175-3.733-18.084-0.499-5.829 3.253-9.142 9.36-9.142 15.668v984.151z"  horiz-adv-x="1024" />

    
    <glyph glyph-name="consultation" unicode="&#58882;" d="M735.152 639.641h-607.114c-35.259 0-63.905-28.616-63.905-63.906v-383.407c0-35.326 28.647-63.906 63.905-63.906h63.908v-159.828l159.768 159.828h383.44c35.321 0 63.905 28.581 63.905 63.906l-0 383.407c-0.001 35.291-28.585 63.906-63.906 63.906v0zM735.152 192.328h-409.901l-69.399-69.399v69.399l-127.815 0 0 383.407h607.114l-0-383.407zM271.83 336.056c26.523 0 47.928 21.528 47.928 47.99 0 26.43-21.404 47.898-47.928 47.898-26.524 0-47.932-21.468-47.932-47.898-0-26.462 21.408-47.99 47.932-47.99v0zM431.596 336.056c26.522 0 47.928 21.528 47.928 47.99 0 26.43-21.404 47.898-47.928 47.898-26.525 0-47.931-21.468-47.931-47.898-0.001-26.462 21.404-47.99 47.931-47.99v0zM591.359 336.056c26.462 0 47.932 21.528 47.932 47.99 0 26.43-21.469 47.898-47.932 47.898-26.459 0-47.927-21.468-47.927-47.898 0-26.462 21.467-47.99 47.927-47.99v0zM894.918 799.408h-607.113c-35.262 0-63.908-28.615-63.908-63.905v-63.908h63.908v63.908h607.113v-383.41l-63.908 0v-63.905h63.908c35.322 0 63.905 28.584 63.905 63.905v383.41c0 35.291-28.583 63.905-63.905 63.905v0zM894.918 799.408z"  horiz-adv-x="1024" />

    
    <glyph glyph-name="support" unicode="&#58903;" d="M508.972 763.375c-158.605 0-287.153-125.851-287.153-281.136 0-155.263 128.548-281.133 287.153-281.133 158.611 0 287.158 125.868 287.158 281.133 0.001 155.283-128.547 281.136-287.158 281.136v0zM177.392 374.325v259.548c-3.634 0-7.238-0.149-10.799-0.432 58.845 127.744 189.904 216.71 342.422 216.71 152.513 0 283.58-88.967 342.419-216.71-3.561 0.284-7.158 0.432-10.799 0.432v-259.548c73.244 0 132.658 58.109 132.658 129.77 0 48.671-27.408 91.078-67.932 113.291-57.026 160.631-212.713 276.006-396.346 276.006-183.634 0-339.31-115.365-396.342-275.991-40.538-22.209-67.936-64.625-67.936-113.301 0-71.664 59.371-129.774 132.653-129.774v0zM795.524 225.536c-75.036-68.56-175.775-110.541-286.553-110.541-110.57 0-211.138 41.826-286.13 110.158-134.213-67.612-222.325-187.953-222.325-351.435h1020.402c0 163.786-89.76 284.273-225.394 351.817v0zM795.524 225.536z"  horiz-adv-x="1024" />

    
    <glyph glyph-name="On-line" unicode="&#58979;" d="M512 736c-247.424 0-448-200.576-448-448s200.576-448 448-448c247.424 0 448 200.576 448 448 0 247.424-200.576 448-448 448zM512-96c-212.064 0-384 171.936-384 384 0 212.064 171.936 384 384 384 212.064 0 384-171.936 384-384 0-212.064-171.936-384-384-384zM499.616 129.504c-12.096-13.632-34.272-13.76-49.504-0.256l-108.832 96.352c-15.264 13.472-17.824 35.52-5.728 49.152v0c12.064 13.632 34.24 13.76 49.472 0.256l108.832-96.32c15.264-13.504 17.824-35.552 5.76-49.184v0zM672.128 443.584c14.752-9.728 18.816-29.568 9.056-44.32l-174.112-263.744c-9.76-14.72-29.568-18.784-44.352-9.056v0c-14.752 9.792-18.816 29.6-9.056 44.384l174.144 263.68c9.76 14.784 29.568 18.816 44.32 9.056v0z"  horiz-adv-x="1024" />

    
    <glyph glyph-name="Off-line" unicode="&#58987;" d="M512 736c-247.424 0-448-200.576-448-448s200.576-448 448-448c247.424 0 448 200.576 448 448 0 247.424-200.576 448-448 448zM512-96c-212.064 0-384 171.936-384 384 0 212.064 171.936 384 384 384 212.064 0 384-171.936 384-384 0-212.064-171.936-384-384-384zM647.136 421.6c12.48-12.512 12.352-32.768-0.32-45.216l-224.704-222.336c-12.576-12.32-32.768-12.192-45.28 0.32v0c-12.384 12.736-12.32 32.864 0.288 45.44l224.768 222.048c12.64 12.48 32.832 12.32 45.248-0.256v0zM645.6 152.864c-12.544-12.448-32.768-12.384-45.216 0.32l-222.304 224.672c-12.32 12.576-12.224 32.8 0.32 45.28v0c12.704 12.416 32.896 12.352 45.408-0.256l222.016-224.8c12.48-12.64 12.352-32.832-0.224-45.216v0z"  horiz-adv-x="1024" />

    
    <glyph glyph-name="The-arrow-inthebox" unicode="&#58961;" d="M907.642 334.568l-148.298 395.341h-165.729l65.2-90.051 51.421-0.024 98.617-305.289h-186.782l-50.179-90.201h-123.197l-46.057 90.078h-186.955l98.714 305.585 51.594-0.024 65.050 89.928h-165.878l-148.522-395.487v-296.649l791.175 0.175zM512.302 730.23l-194.529-225.067h145.942v-205.877h97.178v205.877h145.939z"  horiz-adv-x="1025" />

    
    <glyph glyph-name="list" unicode="&#58915;" d="M864 640v-704h-704v704h704M896 672h-768v-768h768v768zM384 496h384v-32h-384v32zM384 304h384v-32h-384v32zM384 112h384v-32h-384v32zM256 480c0-17.673 14.327-32 32-32s32 14.327 32 32c0 17.673-14.327 32-32 32-17.673 0-32-14.327-32-32zM256 288c0-17.673 14.327-32 32-32s32 14.327 32 32c0 17.673-14.327 32-32 32-17.673 0-32-14.327-32-32zM256 96c0-17.673 14.327-32 32-32s32 14.327 32 32c0 17.673-14.327 32-32 32-17.673 0-32-14.327-32-32z"  horiz-adv-x="1024" />

    
    <glyph glyph-name="normal" unicode="&#58983;" d="M514.817-66c-120.967 0-234.699 46.8-320.216 131.733-85.534 85.033-132.617 198.034-132.6 318.267 0 120.217 47.116 233.233 132.667 318.233 85.517 84.967 199.25 131.767 320.233 131.767 121.016 0 234.733-46.8 320.283-131.767 176.584-175.5 176.567-460.984 0-636.417-85.567-84.983-199.35-131.816-320.366-131.816 0 0 0 0 0 0 0 0 0 0 0 0 0 0 0 0 0 0zM514.901 775.35c-105.233 0-204.116-40.684-278.516-114.583-74.4-73.883-115.367-172.2-115.367-276.767-0.017-104.584 40.933-202.883 115.3-276.8 74.384-73.867 173.3-114.6 278.5-114.6 105.25 0 204.217 40.766 278.633 114.683 153.55 152.567 153.55 400.867 0 553.483-74.4 73.9-173.317 114.583-278.55 114.583 0 0 0 0 0 0 0 0 0 0 0 0 0 0 0 0 0 0zM353.95 261.184c0 0 53.066-84.284 160.851-84.284 107.783 0 178.466 84.284 178.466 84.284 0 0 40.067 0.134 40.050-42.133 0 0-69.467-98.332-218.516-98.332-149.050 0-197.567 98.333-197.567 98.333 0 0-1.467 42.133 36.716 42.133 0 0 0 0 0 0 0 0 0 0 0 0zM383.2 528.699c-30.533 0-55.467-24.683-55.467-55.118 0-30.399 24.917-55.084 55.467-55.084 30.683 0 55.467 24.683 55.467 55.084 0 30.433-24.784 55.118-55.467 55.118 0 0 0 0 0 0 0 0 0 0 0 0 0 0 0 0 0 0zM667.384 528.699c-30.583 0-55.433-24.683-55.433-55.118 0-30.399 24.85-55.084 55.433-55.084 30.65 0 55.467 24.683 55.467 55.084 0 30.433-24.817 55.118-55.467 55.118 0 0 0 0 0 0 0 0 0 0 0 0 0 0 0 0 0 0z"  horiz-adv-x="1044" />

    
    <glyph glyph-name="ioslist" unicode="&#58916;" d="M128 684l0-768 768 0L896 684 128 684zM288 76c-17.672 0-32 14.328-32 32s14.328 32 32 32 32-14.328 32-32S305.672 76 288 76zM288 268c-17.672 0-32 14.328-32 32s14.328 32 32 32 32-14.328 32-32S305.672 268 288 268zM288 460c-17.672 0-32 14.328-32 32s14.328 32 32 32 32-14.328 32-32S305.672 460 288 460zM768 92 384 92l0 32 384 0L768 92zM768 284 384 284l0 32 384 0L768 284zM768 476 384 476l0 32 384 0L768 476z"  horiz-adv-x="1024" />

    
    <glyph glyph-name="home" unicode="&#58917;" d="M835.361177 288.772284l0-264.74978c0-51.557236-42.181705-93.739964-93.724615-93.739964L608.827791-69.71746 608.827791 70.933931 608.827791 119.699588l0 8.436136c0 39.409568-32.241308 71.652923-71.652923 71.652923l-57.201793 0c-39.407522 0-71.643714-32.244378-71.643714-71.652923l0-8.436136 0-48.764634 0-140.652414L282.043143-69.71746c-51.563376 0-93.756337 42.183751-93.756337 93.739964l0 264.74978 301.668621 232.112452c12.045337 9.263991 31.716352 9.263991 43.772946 0L835.361177 288.772284 835.361177 288.772284zM533.728372 670.848213c-12.056594 9.252735-31.728632 9.252735-43.772946 0L166.270373 421.797997c-0.669242-0.403183-1.329275-0.846274-1.968841-1.329275l-93.577259-70.828139c-9.762341-7.404644-11.709693-21.456684-4.305049-31.223119 5.104251-6.782473 13.433964-9.787924 21.318538-8.532327l0.158612 0.027629 0.185218 0.022513 0.151449 0.029676 0.161682 0.039909 0.157589 0.030699 0.057305 0 0.106424 0.021489 0.161682 0.038886 0.166799 0.031722 0.091074 0.025583 0.065492 0.008186 0.162706 0.044002 0.161682 0.027629 0.137123 0.040932 0.033769 0.013303 0.161682 0.036839 0.149403 0.042979 0.160659 0.042979 0.020466 0 0.144286 0.048095 0.165776 0.044002 0.145309 0.050142 0.062422 0.008186 0.100284 0.033769 0.158612 0.052189 0.173962 0.052189 0.092098 0.029676 0.058328 0.030699 0.163729 0.039909 0.157589 0.064468 0.1361 0.040932 0.016373 0.01228 0.168846 0.058328 0.161682 0.054235 0.044002 0.027629 0.214894 0.077771 0.038886 0.024559 0.159636 0.055259 0.161682 0.069585 0.054235 0.025583 0.092098 0.040932 0.163729 0.059352 0.228197 0.102331 0.040932 0.01535 0.036839 0.023536 0.176009 0.068562 0.135076 0.075725 0.145309 0.070608 0 0 0.163729 0.069585 0.147356 0.076748 0.150426 0.080841 0.030699 0.013303 0.12689 0.055259 0.301875 0.160659 0.077771 0.031722 0.080841 0.037862 0.162706 0.105401 0.135076 0.081864 0.115634 0.053212 0.01842 0.026606 0.152473 0.092098 0.276293 0.155543 0.01842 0.010233 0.013303 0.011256 0.436952 0.268106 0.030699 0.017396 0.119727 0.083911 0.294712 0.167822 0.059352 0.059352 0.079818 0.061398 0.384763 0.271176 0.048095 0.028653 0.127913 0.104377 0.161682 0.095167 0.122797 0.12075 19.211551 14.537088 1.467421 0L489.955426 614.611397c12.045337 9.253758 31.716352 9.253758 43.772946 0l293.442262-225.797629c1.140986-1.421372 2.462075-2.728134 3.975545-3.885494l65.457828-49.53723 8.78406-6.749728 0.12382 0 19.222807-14.537088c0.448208-0.372483 0.916882-0.680499 1.411139-0.99056l0.01228-0.00614 0.457418-0.290619 0.032746-0.019443c0.445138-0.265036 0.86981-0.505513 1.315972-0.743944l0.106424-0.047072 0.068562-0.035816 0.344854-0.173962 0.100284-0.030699 0.079818-0.042979 0.148379-0.074701 0.171915-0.076748 0.095167-0.045025 0.080841-0.039909 0.339738-0.147356 0.079818-0.030699 0.092098-0.037862 0.171915-0.069585 0.182149-0.068562 0.080841-0.044002 0.26299-0.091074 0.172939-0.065492 0.059352-0.027629 0.12382-0.032746c0.299829-0.101307 0.585331-0.206708 0.873903-0.287549l0.046049-0.022513 0.490164-0.138146 0.034792-0.01228 0.499373-0.12382 0.014326-0.013303 0.50142-0.112564 0.010233-0.008186 0.01228 0 0.039909 0 0.329505-0.082888 0.155543-0.034792 0.01228 0 0.171915-0.030699 0.354064-0.063445 0.016373-0.00614 0.35918-0.061398 0.166799-0.020466 0.011256 0 0.522909-0.081864 0.040932 0 0.342808-0.046049 0 0.010233c7.546883-0.811482 15.335267 2.220574 20.218484 8.679683 7.389294 9.765411 5.454222 23.818475-4.327562 31.210839l-27.378557 20.721951-93.666286 72.087828 0 62.093197 0 30.713512 0 5.308913c0 24.822338-20.319791 45.133943-45.143153 45.133943l-36.022425 0c-24.824385 0-45.137013-20.312628-45.137013-45.133943l0-0.938372L533.728372 670.848213 533.728372 670.848213zM756.494968 558.440074c-16.177448 0-29.41596-13.236466-29.41596-29.407774l0-5.767354 0-1.052982 0-0.149403 80.151481-61.663408 0 61.812811 0 1.052982 0 5.767354c0 16.172331-13.229303 29.407774-29.405727 29.407774L756.494968 558.440074 756.494968 558.440074zM802.43323 274.092957 531.500635 474.992523c-10.837836 8.023744-28.503171 8.023744-39.313378 0L221.229079 274.092957l0-229.151004c0-44.633546 37.888935-81.134879 84.188424-81.134879l71.561849 0 0 116.145254 0 53.436026 0 9.226129c0 43.180452 42.391483 78.500888 94.231151 78.500888l75.237565 0c51.836599 0 94.237291-35.320437 94.237291-78.500888l0-9.226129 0-53.436026 0-116.145254 77.54205 0c46.314839 0 84.204797 36.501332 84.204797 81.134879L802.432207 274.092957z"  horiz-adv-x="1024" />

    
    <glyph glyph-name="mores" unicode="&#58957;" d="M3.091 385.194c0-71.21 57.727-128.937 128.937-128.937s128.937 57.727 128.937 128.937c0 71.21-57.727 128.937-128.937 128.937-71.21 0-128.937-57.727-128.937-128.937zM381.358 385.194c0-71.21 57.727-128.937 128.937-128.937s128.937 57.727 128.937 128.937c0 71.21-57.727 128.937-128.937 128.937-71.21 0-128.937-57.727-128.937-128.937zM763.035 385.194c0-71.21 57.727-128.937 128.937-128.937s128.937 57.727 128.937 128.937c0 71.21-57.727 128.937-128.937 128.937-71.21 0-128.937-57.727-128.937-128.937z"  horiz-adv-x="1024" />

    
    <glyph glyph-name="liulan" unicode="&#58912;" d="M512 620c206.752 0 419.872-254.016 446.496-320C931.936 233.984 718.752-20 512-20 304.544-20 91.584 234.176 65.504 300 91.744 365.792 304.704 620 512 620M512 684C256.192 684 0 364.192 0 300c0-64.064 255.104-384 512-384 256.32 0 512 320.384 512 384C1024 364 767.136 684 512 684L512 684zM512 460c-88.416 0-160-71.648-160-160 0-88.384 71.584-160 160-160 88.448 0 160 71.616 160 160C672 388.352 600.448 460 512 460zM512 204c-52.992 0-96 43.008-96 96 0 53.024 43.008 96 96 96s96-42.976 96-96C608 247.008 565.056 204 512 204z"  horiz-adv-x="1024" />

    
    <glyph glyph-name="user" unicode="&#58918;" d="M703.4-195.074c-3.519 0-7.078 0.992-10.24 3.067-30.289 19.876-80.136 25.263-97.079 25.679h-22.12l-35.288-0.271c-0.048 0-0.095 0-0.143 0l-445.79-0c-10.326 0-18.697 8.371-18.697 18.697v22.468c-0.318 6.267-0.911 40.604 21.004 78.307 13.716 23.598 33.431 43.861 58.599 60.226 30.494 19.829 69.116 33.909 114.797 41.849 0.233 0.040 0.467 0.076 0.701 0.107 0.347 0.047 35.5 4.859 71.209 14.273 61.895 16.318 67.308 30.743 67.346 30.884 0.364 1.431 0.894 2.804 1.573 4.095 0.508 2.699 1.764 12.859-0.638 40.080-6.101 69.137-42.12 109.995-71.061 142.826-9.128 10.355-17.749 20.134-24.387 29.723-28.64 41.372-31.297 88.417-31.396 90.399-0.015 0.311-0.023 0.622-0.023 0.933 0 18.78 9.363 27.418 17.624 35.041l0.434 0.401c0.271 0.251 0.442 0.437 0.542 0.557 0.093 1.341-0.567 4.743-1.013 7.041-0.17 0.874-0.34 1.751-0.501 2.633-7.18 38.982-7.671 99.192-1.176 137.837 2.41 50.813 46.225 89.711 48.106 91.357 0.072 0.062 0.143 0.124 0.215 0.185 6.29 5.339 12.672 11.169 16.728 17.637 0.487 0.776 0.828 1.377 1.066 1.837-0.305 0.787-0.742 1.794-1.095 2.608-2.436 5.619-6.118 14.109-4.024 25.024 1.264 6.589 6.078 18.362 24.118 23.174 7.261 1.937 15.022 2.333 20.689 2.622l1.123 0.058c22.39 1.179 46.273 2.177 70.435 0.324 174.731-13.396 234.92-78.686 237.397-81.459 0.14-0.156 0.276-0.314 0.409-0.475 13.987-16.757 24.348-37.635 30.796-62.055 2.015-7.62 3.309-14.016 4.063-20.072 6.103-35.465 5.085-71.905 3.782-96.27-0.733-13.675-2.257-28.030-4.8-45.176-0.692-4.656 0.069-5.565 0.355-5.907 0.758-0.907 1.686-1.892 2.668-2.935 3.863-4.099 9.152-9.713 11.964-18.721 1.41-4.503 2.069-9.36 2.069-15.268 0-0.311-0.008-0.622-0.023-0.933-0.099-1.982-2.756-49.027-31.395-90.398-6.639-9.59-15.26-19.369-24.387-29.723-28.942-32.83-64.961-73.689-71.061-142.828-2.402-27.221-1.145-37.379-0.638-40.080 0.678-1.291 1.209-2.665 1.573-4.094 0.037-0.141 5.472-14.614 67.649-30.964 35.705-9.389 70.558-14.146 70.906-14.193 0.304-0.041 0.607-0.090 0.909-0.145 46.096-8.55 84.957-22.992 115.506-42.924 25.252-16.476 44.93-36.702 58.489-60.114 21.502-37.129 20.627-70.715 20.196-77.444v-22.333c0-10.326-8.371-18.697-18.697-18.697l-176.884-0c-10.326 0-18.697 8.371-18.697 18.697s8.371 18.697 18.697 18.697h158.189v4.311c0 0.687 0.009 1.106 0.082 1.769 0.104 1.508 1.627 28.332-16.349 58.131-10.82 17.938-26.59 33.609-46.87 46.581-26.1 16.693-59.762 28.968-100.053 36.483-4.64 0.643-39.013 5.565-75.081 15.060-70.762 18.629-87.964 39.353-93.189 54.396-4.004 7.766-6.245 23.195-2.985 60.153 7.181 81.369 49.42 129.282 80.261 164.268 8.747 9.922 16.301 18.491 21.693 26.28 21.12 30.511 24.438 66.3 24.765 70.606-0.033 2.252-0.261 3.223-0.362 3.55-0.249 0.798-1.897 2.547-3.49 4.239-1.25 1.327-2.668 2.833-4.136 4.587-7.95 9.504-10.783 21.079-8.66 35.385 2.368 15.961 3.781 29.206 4.449 41.684 1.951 36.502 0.914 63.748-3.364 88.341-0.057 0.326-0.105 0.655-0.145 0.983-0.531 4.438-1.531 9.354-3.148 15.469-4.987 18.884-12.727 34.771-23.007 47.233-1.714 1.748-15.385 15.125-45.883 29.676-54.883 26.183-120.791 35.849-166.417 39.348-21.935 1.681-44.442 0.733-65.614-0.383l-1.179-0.060c-1.766-0.090-4.736-0.241-7.558-0.526 2.448-5.841 5.453-14.632 2.296-25.136-1.185-3.94-3.003-7.792-5.723-12.129-6.732-10.733-15.924-19.236-24.055-26.145-1.597-1.442-34.223-31.356-35.351-65.738-0.029-0.87-0.118-1.737-0.267-2.594-5.972-34.304-5.569-90.781 0.898-125.894 0.14-0.765 0.289-1.526 0.436-2.283 1.98-10.205 5.295-27.284-10.88-42.202l-0.435-0.402c-2.087-1.925-4.944-4.561-5.416-5.469v0c0.003 0-0.133-0.427-0.165-1.584 0.328-4.296 3.654-40.060 24.764-70.555 5.392-7.788 12.946-16.357 21.693-26.28 30.841-34.985 73.079-82.899 80.26-164.266 3.26-36.959 1.019-52.388-2.985-60.154-5.226-15.043-22.428-35.767-93.189-54.396-36.365-9.574-71.006-14.497-75.189-15.074-39.834-6.958-73.196-18.883-99.16-35.445-20.186-12.876-35.971-28.599-46.92-46.732-18.282-30.282-17.133-57.861-17.055-59.336 0.050-0.543 0.054-0.868 0.054-1.434v-4.309l462.299 0.271c0.047 0 0.095 0 0.143 0h22.424c0.141 0 0.28-0.001 0.422-0.005 2.896-0.064 71.446-1.943 116.95-31.803 8.634-5.665 11.039-17.255 5.374-25.889-3.594-5.475-9.564-8.444-15.652-8.444zM631.467 110.124c0.454-0.368 0.89-0.757 1.306-1.165-0.394 0.387-0.829 0.778-1.306 1.165zM414.042 110.124c-0.472-0.383-0.902-0.769-1.292-1.152 0.411 0.402 0.843 0.787 1.292 1.152z"  horiz-adv-x="1024" />

    
    <glyph glyph-name="comment" unicode="&#58919;" d="M266.025 246c-42.325 0-76.759 34.435-76.759 76.763 0 42.325 34.434 76.759 76.759 76.759s76.759-34.434 76.759-76.759c0-42.328-34.433-76.763-76.759-76.763zM266.025 362.343c-21.824 0-39.579-17.755-39.579-39.579 0-21.827 17.755-39.584 39.579-39.584s39.579 17.757 39.579 39.584c0 21.824-17.755 39.579-39.579 39.579zM521.821 246c-42.325 0-76.759 34.435-76.759 76.763 0 42.325 34.434 76.759 76.759 76.759s76.759-34.434 76.759-76.759c0-42.328-34.433-76.763-76.759-76.763zM521.821 362.343c-21.824 0-39.579-17.755-39.579-39.579 0-21.827 17.755-39.584 39.579-39.584s39.58 17.757 39.58 39.584c0 21.824-17.755 39.579-39.58 39.579zM772.168 246c-42.327 0-76.763 34.435-76.763 76.763 0 42.325 34.435 76.759 76.763 76.759 42.325 0 76.759-34.434 76.759-76.759-0-42.328-34.434-76.763-76.759-76.763zM772.168 362.343c-21.826 0-39.585-17.755-39.585-39.579 0-21.827 17.758-39.584 39.585-39.584 21.824 0 39.58 17.757 39.58 39.584 0 21.824-17.756 39.579-39.58 39.579zM287.374-105.644c-3.448 0-6.934 0.959-10.049 2.963-8.632 5.56-11.122 17.063-5.563 25.694 17.161 26.644 50.128 44.535 97.988 53.179 32.119 5.801 59.942 5.308 63.44 5.215h431.73c35.307 0 64.031 28.725 64.031 64.032l0 526.712c0 35.307-28.724 64.031-64.031 64.031h-691.645c-35.307 0-64.031-28.724-64.031-64.031v-526.711c0-33.039 24.748-60.429 57.565-63.711 2.137-0.213 4.314-0.321 6.466-0.321h51.903c10.267 0 18.59-8.323 18.59-18.589s-8.323-18.589-18.59-18.589h-51.903c-3.38 0-6.799 0.17-10.161 0.504-24.855 2.486-47.832 14.061-64.703 32.595-16.99 18.665-26.347 42.855-26.347 68.112l0 526.71c0 55.808 45.403 101.211 101.211 101.211h691.645c55.808 0 101.21-45.403 101.21-101.211v-526.711c0-55.808-45.402-101.211-101.21-101.211l-432.574 0.009c-0.248 0.007-26.75 0.726-56.611-4.746-25.413-4.655-58.658-14.785-72.715-36.61-3.553-5.518-9.537-8.527-15.645-8.527z"  horiz-adv-x="1024" />

    
    <glyph glyph-name="comment-i" unicode="&#58920;" d="M877.771 682.021h-732.003c-48.292 0-87.442-39.15-87.442-87.442v-557.445c0-45.319 34.483-82.594 78.641-87.005 2.895-0.291 5.828-0.437 8.801-0.437h23.361c0-13.396 0-48.223 0-48.413 0-20.892 19.956-22.864 33.736-13.868 12.462 8.142 25.017 16.118 37.818 23.708 25.228 14.949 54.483 32.991 84.234 38.573h552.855c48.29 0 87.442 39.15 87.442 87.442v557.445c0 48.293-39.153 87.442-87.442 87.442zM243.931 269.071c-34.002 0-61.566 27.561-61.566 61.563s27.563 61.566 61.566 61.566 61.563-27.563 61.563-61.566-27.56-61.563-61.563-61.563zM514.653 269.071c-34.002 0-61.566 27.561-61.566 61.563s27.563 61.566 61.566 61.566c34 0 61.563-27.563 61.563-61.566s-27.563-61.563-61.563-61.563zM779.606 269.071c-34.002 0-61.568 27.561-61.568 61.563s27.566 61.566 61.568 61.566c34.002 0 61.566-27.563 61.566-61.566s-27.563-61.563-61.566-61.563z"  horiz-adv-x="1024" />

    
    <glyph glyph-name="user-i" unicode="&#58921;" d="M626.568-182h-23.38l-36.858-0.284-498.192-0v23.989c0 0-10.815 134.007 186.536 168.309 0 0 150.23 20.28 160.749 61.596 0 0 5.732 4.597 1.502 52.578-9.017 102.161-75.868 150.234-102.91 189.294-27.042 39.064-29.294 84.132-29.294 84.132 0 11.264 4.717 15.392 12.56 22.626 9.696 8.951 6.786 18.458 4.935 28.529-7.045 38.236-7.667 99.663-0.971 138.139 1.502 45.821 43.566 82.626 43.566 82.626 7.893 6.696 15.803 14.063 21.343 22.899 1.547 2.461 2.971 5.1 3.814 7.897 3.169 10.548-7.56 18.293-5.408 29.512 1.943 10.116 19.281 10.614 29.767 11.165 23.614 1.243 47.348 2.173 70.925 0.367 176.457-13.527 234.472-78.486 234.472-78.486 13.737-16.45 22.787-36.566 28.232-57.184 1.63-6.164 3.029-12.457 3.786-18.796 5.502-31.603 5.481-64.559 3.77-96.495-0.815-15.227-2.585-30.215-4.82-45.282-1.172-7.885-0.571-15.223 4.7-21.523 4.403-5.272 9.441-8.955 11.602-15.881 1.012-3.239 1.276-6.737 1.276-10.112 0 0-2.256-45.068-29.298-84.132-27.042-39.059-93.894-87.132-102.906-189.294-4.234-47.982 1.502-52.578 1.502-52.578 10.514-41.314 160.749-61.596 160.749-61.596 199.557-37.010 186.532-168.309 186.532-168.309v-23.989h-131.379l20.7 0.284-227.603 0.001z"  horiz-adv-x="1024" />

    
    <glyph glyph-name="reservation" unicode="&#58922;" d="M401.239 256.459h-195.523v-55.863h195.523v55.863zM205.716 60.937h195.523v55.862h-195.523l-0-55.862zM736.419 284.39c-123.209 0-223.452-100.242-223.452-223.453s100.243-223.454 223.452-223.454c123.211 0 223.452 100.244 223.452 223.454s-100.24 223.453-223.452 223.453zM736.419-106.653c-92.416 0-167.59 75.176-167.59 167.59s75.175 167.59 167.59 167.59c92.414 0 167.59-75.176 167.59-167.59s-75.176-167.59-167.59-167.59zM149.852-22.859c-7.445 0-14.455 2.919-19.749 8.183-5.265 5.292-8.182 12.301-8.182 19.749l-0 335.181h646.259c18.126-2.592 35.572-7.278 52.035-13.966v69.829l0 139.657c0 22.395-8.729 43.439-24.548 59.246-15.823 15.834-36.88 24.548-59.246 24.548h-55.862l-0 111.729h-55.864v-111.728l-335.182 0v111.728h-55.863v-111.728h-83.796c-22.365 0-43.423-8.714-59.245-24.535-15.82-15.821-24.549-36.866-24.549-59.261v-530.702c0-22.367 8.729-43.426 24.549-59.245 15.822-15.822 36.88-24.551 59.245-24.551h354.084c-13.53 16.804-24.632 35.598-32.868 55.864l-321.217-0zM121.921 479.911v55.862c0 7.461 2.892 14.471 8.182 19.748 5.294 5.279 12.303 8.184 19.749 8.184h83.796v-83.795h55.863v83.795h335.181v-83.795h55.864v83.795h55.862c7.446 0 14.456-2.904 19.75-8.197 5.29-5.265 8.181-12.276 8.181-19.735v-139.658l-642.43-0v83.795zM764.35 172.663h-55.863v-139.659h139.658v55.863h-83.794l-0 83.795z"  horiz-adv-x="1024" />

    
    <glyph glyph-name="type-law" unicode="&#58928;" d="M-514.257 360.857v0zM-375.6 228.79v0zM953.39 383.955c0-0.002-0.041-0.004-0.103-0.006l-134.156 297.015v28.888h-246.16c0 42.104-27.604 72.522-64.107 72.522-34.49 0-64.103-28.402-64.103-72.522h-242.127v-33.647l-131.943-292.254c-0.048 0.001-0.078 0.004-0.078 0.005 0-0.057 0.002-0.114 0.002-0.172l-0.002-0.005h0.002c0.084-86.515 62.351-165.262 158.863-165.262 98.646 0 158.759 78.712 158.867 165.207h0.004l-0.004 0.008c0 0.075 0.002 0.149 0.002 0.224 0-0.002-0.041-0.004-0.1-0.006l-120.202 267.193h191.536v-563.579h-187.771c-72.002 0-102.115-35.588-102.115-101.941h684.619c0 56.975-29.327 101.941-102.124 101.941h-198.848v563.635h202.677l-120.227-267.25c-0.079 0.002-0.133 0.005-0.133 0.006 0-86.586 62.288-165.439 158.865-165.439 98.646 0 158.759 78.713 158.867 165.207h0.002l-0.002 0.006c0 0.075 0.004 0.151 0.004 0.227zM319.657 383.849c-53.383-0.027-127.071-0.027-180.435 0l90.282 229.3 90.153-229.3zM704.322 383.849l90.172 229.3 90.153-229.3c-53.36-0.026-126.983-0.026-180.324 0z"  horiz-adv-x="1024" />

    
    <glyph glyph-name="get-phone" unicode="&#59530;" d="M1001.6 132.15999999999997l-145.024 145.088c-25.856 25.792-70.976 25.792-97.024 0l-64.384-64.384c-25.664-25.856-70.976-25.6-96.768 0L340.48 470.784c-26.624 26.624-26.624 70.144 0 96.768l64.576 64.448c12.8 12.928 19.84 29.952 19.84 48.384s-7.04 35.456-19.84 48.384L259.904 873.92c-25.728 25.856-71.04 25.856-96.768 0L98.688 809.472C98.112 808.96 97.6 808.576 95.744 807.6800000000001 91.648 805.6320000000001 82.048 800.64 77.76 788.48c-83.072-86.464-97.664-194.176-43.072-320 40.384-93.568 119.232-198.208 241.28-320 186.688-187.008 332.992-273.728 460.736-273.728 67.072 0 127.552 25.344 179.648 75.392 12.032 4.032 17.024 13.76 19.008 17.92 1.024 1.664 1.344 2.304 1.728 2.944l64.576 64.448C1028.352 62.20799999999997 1028.352 105.40800000000002 1001.6 132.15999999999997L1001.6 132.15999999999997zM195.328 841.664c8.512 8.576 23.68 8.576 32.384 0l145.088-145.216c4.224-4.096 6.592-9.856 6.592-16.064 0-6.016-2.368-11.904-6.592-16.064L324.352 615.8720000000001l-177.28 177.472L195.328 841.664 195.328 841.664zM736.704-79.61599999999999c-113.216 0-253.376 85.056-428.416 260.224C190.464 298.432 114.56 398.464 76.48 486.656 28.544 597.568 41.024 687.36 114.688 761.152l179.008-179.136C264.448 537.856 269.312 477.568 308.224 438.592l258.048-257.984C587.84 158.91200000000003 616.32 147.20000000000005 646.976 147.20000000000005c22.592 0 44.352 6.848 62.656 18.752l179.136-178.944C843.968-57.855999999999995 793.92-79.61599999999999 736.704-79.61599999999999L736.704-79.61599999999999zM969.28 67.64800000000002L921.152 19.200000000000045l-177.408 177.344 48.32 48.512c8.64 8.64 23.808 8.64 32.256 0l145.024-145.28C978.304 90.88 978.304 76.54399999999998 969.28 67.64800000000002L969.28 67.64800000000002z"  horiz-adv-x="1024" />

    
    <glyph glyph-name="the-community" unicode="&#58967;" d="M797.867 332.8c0 21.333 17.067 40.533 38.4 40.533 21.333 0 38.4-19.2 38.4-40.533v-386.133c0-21.333-17.067-38.4-38.4-38.4v0h-648.533c-21.333 0-40.533 17.067-40.533 38.4v0 384c0 21.333 17.067 40.533 40.533 40.533 21.333 0 38.4-19.2 38.4-40.533v-345.6h125.867v390.4c0 12.8 10.667 23.467 23.467 23.467v0h268.8c12.8 0 23.467-10.667 23.467-23.467v0-388.267h125.867l-0 345.6h4.267zM401.067-14.933v0h221.867l-0 364.8h-221.867v-364.8zM68.267 322.133v0c-14.933-14.933-40.533-14.933-55.467 0-14.933 14.933-14.933 40.533 0 55.467l471.467 471.467c14.933 14.933 40.533 14.933 55.467 0v0l471.467-471.467c14.933-14.933 14.933-40.533 0-55.467-14.933-14.933-40.533-14.933-55.467 0l-443.733 443.733-443.733-443.733z"  horiz-adv-x="1024" />

    
    <glyph glyph-name="dianzan" unicode="&#59267;" d="M994.942 471.764c-22.603 36.431-60.977 56.947-100.82 58.512-2.065 0.319-4.162 0.531-6.313 0.531l-233.349 0.254c15.825 45.238 24.471 93.847 24.471 144.493 0 32.848-3.732 64.809-10.579 95.597l-0.615-0.080c-12.453 53.932-60.675 94.185-118.397 94.185-67.178 0-121.625-54.453-121.625-121.618 0-3.715 0.235-7.367 0.551-11.005-3.609-129.103-104.759-233.757-232.414-242.893v-0.786l-138.738-0.323c-1.678 0.206-3.365 0.345-5.090 0.345-23.095 0-41.82-18.719-41.82-41.809l-0.377-501.885c0-23.086 18.713-41.804 41.809-41.804 2.267 0 4.476 0.228 6.644 0.574l154.346-0.064c2.044-0.307 4.103-0.51 6.222-0.51s4.174 0.203 6.201 0.505l580.263-0.494c22.731-0.042 45.742 6.074 66.349 19.168 19.562 12.444 34.276 29.525 43.948 48.848 2.653 3.854 4.746 8.191 6.014 12.969l90.336 398.741c1.252 4.729 1.593 9.478 1.221 14.1 1.877 25.248-3.856 51.28-18.237 74.45zM260.911-17.844l-83.612 0.019 0.314 417.691c0 0 51.083 0.322 83.695 10.431l-0.398-428.141z"  horiz-adv-x="1024" />

    
    <glyph glyph-name="the-citizens" unicode="&#58962;" d="M861.166 30.015c0-17.287-14.488-31.295-32.408-31.295h-633.516c-17.92 0-32.409 14.008-32.409 31.295l-0.068 45.584c0 93.624 107.688 169.5 210.464 169.5 0 0 36.249-69.903 135.272-69.903 99.036 0 142.284 69.903 142.284 69.903 117.316 0 210.448-75.875 210.448-169.5l-0.069-45.584zM508.502 138.78c-19.916 0-37.82 2.524-53.76 6.62l49.492-111.372h15.532l50.432 113.488c-18.212-5.255-38.708-8.736-61.696-8.736v0zM512.002 278.684c-135.136 0-244.668 74.58-244.668 209.708s61.165 279.608 244.668 279.608c183.5 0 244.663-144.48 244.663-279.608s-109.531-209.708-244.663-209.708v0zM717.566 535.355l-135.661 75.364-278.48-98.264c-0.695-8.056-1.14-16.076-1.14-24.064 0-115.811 93.9-174.756 209.716-174.756 115.811 0 209.716 58.945 209.716 174.756-0 15.548-1.473 31.301-4.152 46.964v0zM717.566 535.355z"  horiz-adv-x="1024" />

    
    <glyph glyph-name="type-medical" unicode="&#58929;" d="M846.866 630.271h-167.802v111.869c0 30.766-25.168 55.934-55.934 55.934h-223.737c-30.766 0-55.934-25.168-55.934-55.934v-111.869h-167.803c-61.532 0-111.868-50.334-111.868-111.868v-447.472c0-61.533 50.334-111.868 111.868-111.868h671.209c61.533 0 111.869 50.334 111.869 111.868v447.472c0 61.532-50.335 111.868-111.869 111.868M399.394 742.14h223.737v-111.869h-223.737v111.869zM734.998 238.732h-167.802v-167.801h-111.868v167.801h-167.802v111.868h167.802v167.804h111.868v-167.804h167.802v-111.868z"  horiz-adv-x="1024" />

    
    <glyph glyph-name="consult1" unicode="&#58909;" d="M665.328 474.802h-475.977c-9.572 0-17.333-7.751-17.333-17.333s7.761-17.333 17.333-17.333h475.977c9.572 0 17.333 7.751 17.333 17.333s-7.761 17.333-17.333 17.333zM595.327 313.122h-335.988c-9.572 0-17.333-7.751-17.333-17.333s7.761-17.333 17.333-17.333h335.988c9.572 0 17.333 7.751 17.333 17.333s-7.761 17.333-17.333 17.333zM935.548 831.558h-677.773c-43.611 0-79.098-34.901-79.098-77.81v-42.841c0-14.353 11.636-25.998 25.998-25.998 14.364 0 25.998 11.646 25.998 25.998v42.841c0 14.235 12.154 25.812 27.101 25.812h677.773c14.946 0 27.101-11.578 27.101-25.812v-415.574c0-14.235-12.154-25.828-27.101-25.828h-41.562c-14.364 0-25.998-11.646-25.998-25.998 0-14.353 11.636-25.998 25.998-25.998h41.562c43.611 0 79.098 34.918 79.098 77.827v415.573c0 42.909-35.485 77.81-79.098 77.81zM766.225 662.243h-677.783c-43.611 0-79.088-34.918-79.088-77.827v-415.574c0-42.909 35.477-77.827 79.088-77.827h222.362l94.863-142.943c4.825-7.263 12.957-11.629 21.665-11.629s16.842 4.368 21.665 11.629l94.871 142.943h222.354c18.449 0 36.543 6.637 50.974 18.703 17.873 14.946 28.124 36.493 28.124 59.123v415.577c0 42.909-35.485 77.827-79.098 77.827zM793.325 168.842c0-9.834-5.941-16.283-9.478-19.246-3.597-2.997-9.572-6.585-17.619-6.585h-236.301c-8.707 0-16.842-4.368-21.665-11.629l-80.926-121.921-80.916 121.921c-4.825 7.263-12.957 11.629-21.665 11.629h-236.309c-14.938 0-27.090 11.595-27.090 25.828v415.574c0 14.235 12.154 25.828 27.090 25.828h677.783c14.946 0 27.101-11.595 27.101-25.828v-415.574z"  horiz-adv-x="1024" />

    
    <glyph glyph-name="type-lawsuit" unicode="&#58930;" d="M233.657 832.937h73.717l39.29-84.057 327.364 0.862 36.863 83.196h71.779v-748.823h31.032v-34.917h-609.138v34.917h29.096v748.823h-0.001zM107.566-61.376h803.132v85.354h-803.132l-0-85.354zM618.334 373.456c-14.762-49.975-54.463-75.894-109.295-75.894-54.834 0-94.518 25.383-109.146 75.581-59.86-0.869-91.576-36.58-119.721-77.853v-207.063h453.863l0 211.141c-27.712 39.118-65.659 79.182-115.701 74.087v0zM509.039 615.258c-66.656 0-120.709-54.053-120.709-120.708s54.053-120.708 120.709-120.708c66.654 0 120.708 54.053 120.708 120.708s-54.054 120.708-120.708 120.708z"  horiz-adv-x="1024" />

    
    <glyph glyph-name="status-search" unicode="&#58923;" d="M229.028 451.348v93.997h-46.998v-93.997h46.998zM323.025 639.341h-234.991v-46.998h234.991v46.998zM229.028 216.358v93.997h-46.998v-93.997h46.998zM840.004 827.334h-563.977c-51.91 0-93.997-42.086-93.997-93.997v-46.998h46.998c0 51.908 42.087 93.997 93.997 93.997h46.999v-751.969h-46.999c-51.908 0-93.997 42.085-93.997 93.997h93.997v46.997h-234.991v-46.997h93.997v-47c0-51.907 42.086-93.995 93.997-93.995h563.977c51.908 0 93.997 42.086 93.997 93.995v657.973c0.001 51.91-42.085 93.998-93.995 93.998zM887.003 122.364c0-14.274-3.188-27.801-8.882-39.92l-124.057 145.162c24.284 28.666 38.94 65.747 38.94 106.249 0 90.829-73.662 164.492-164.492 164.492-90.83 0-164.493-73.665-164.493-164.492 0-90.83 73.665-164.494 164.493-164.494 33.38 0 64.433 9.959 90.372 27.052l128.693-150.586c-15.386-10.99-34.224-17.459-54.574-17.459h-375.983v751.969h375.983c51.911 0 93.998-42.087 93.998-93.997v-563.976zM746.007 333.854c0-64.899-52.597-117.495-117.494-117.495s-117.496 52.597-117.496 117.495c0 64.898 52.598 117.494 117.496 117.494s117.494-52.597 117.494-117.494zM323.025 404.35h-234.991v-46.999h234.991v46.999z"  horiz-adv-x="1024" />

    
    <glyph glyph-name="type-company" unicode="&#58931;" d="M64.085 833.248c148.353 0 295.041 0 444.432 0 0-298.936 0-596.874 0-896.964-147.338 0-294.692 0-444.432 0 0 297.434 0 595.451 0 896.964zM116.086 610.819c40.923 0 77.098 0 114.211 0 0 37.925 0 73.439 0 113.141-34.723 0-68.329 0.547-101.87-0.68-4.286-0.156-11.607-9.442-11.79-14.697-1.109-31.843-0.551-63.74-0.551-97.764zM344.332 608.76c33.463 0 66.039-0.696 98.518 0.731 4.991 0.221 13.352 10.008 13.661 15.719 1.458 27.106 1.63 54.394-0.077 81.471-0.381 6.135-9.817 16.426-15.511 16.72-31.559 1.644-63.255 0.788-96.591 0.788 0-39.485 0-75.586 0-115.429zM231.501 159.611c0 34.067 1.016 64.907-0.856 95.574-0.381 6.197-11.348 16.268-18.019 16.768-26.119 1.957-52.514 1.579-78.711 0.212-6.074-0.317-16.66-7.744-16.858-12.262-1.447-33.218-0.779-66.528-0.779-100.292 40.146 0 75.57 0 115.223 0zM344.725 272.712c0-39.979 0-75.975 0-111.832 38.179 0 74.144 0 112.439 0 0 33.254 0.872 64.142-0.762 94.894-0.311 5.914-10.204 15.861-16.092 16.174-30.768 1.634-61.68 0.764-95.585 0.764zM229.988 497.737c-34.926 0-68.384 0.433-101.803-0.558-4.097-0.122-11.287-7.772-11.419-12.093-0.956-33.234-0.525-66.506-0.525-98.976 40.896 0 76.884 0 113.748 0-0.001 37.618-0.001 72.773-0.001 111.627zM457.153 497.943c-36.319 0-68.042 0.429-99.729-0.453-4.864-0.135-13.617-6.165-13.722-9.68-1.043-34.184-0.624-68.412-0.624-104.076 34.696 0 64.741-1.022 94.615 0.775 6.792 0.409 18.211 10.257 18.587 16.312 1.904 30.718 0.873 61.614 0.873 97.122zM679.426 158.018c0-74.725 0-147.695 0-222.23-37.064 0-70.629 0-106.797 0 0 165.856 0 331.894 0 500.468 127.945 0 256.314 0 387.121 0 0-166.138 0-332.188 0-500.181-34.707 0-68.965 0-106.57 0 0 73.773 0 146.75 0 221.943-58.301 0-113.34 0-173.754 0zM571.324 500.476c0 17.363 0 32.113 0 49.126 129.613 0 257.979 0 388.59 0 0-16.024 0-31.404 0-49.126-128.91 0-257.291 0-388.59 0z"  horiz-adv-x="1024" />

    
    <glyph glyph-name="iconfontlaodonghetong" unicode="&#59003;" d="M878.17076019 722.9473685099999L822.97076019 722.9473685099999 822.97076019 786.37894722C822.97076019 818.09473703 798.0339185 844 767.52865463 844L200.5181287 844C169.77076019 844 145.07602315 818.09473703 145.07602315 786.37894722l0-683.94736851C145.07602315 70.95789446000003 169.77076019 45.05263148999995 200.5181287 45.05263148999995L266.12865463 45.05263148999995l0-57.62105278C266.12865463-44.042105539999966 291.06549722-76 321.57076019-76l542.8 0c30.74736851 0 55.44210555 25.90526297 55.44210554 57.62105278L919.81286573 665.5684212900001C919.81286573 697.04210554 895.1181287 722.9473685099999 864.37076019 722.9473685099999L878.17076019 722.9473685099999zM446.98128612 722.9473685099999l223.70526297 1e-8c15.25263149 0 27.84210555-3.87368426 27.84210554-19.61052594 0-15.97894722-12.58947406-28.81052594-27.84210554-28.81052593l-223.70526297-1e-8c-15.01052594 0-27.6 12.83157871-27.6 28.81052594C419.38128612 719.0736842599999 431.97076019 722.9473685099999 446.98128612 722.9473685099999zM281.13918147 553.47368426l389.54736852 0c15.25263149 0 27.84210555-3.87368426 27.84210554-19.61052594 0-15.97894722-12.58947406-28.81052594-27.84210555-28.81052594L281.13918147 505.05263148c-15.25263149 0-27.84210555 12.83157871-27.84210555 28.81052594C253.29707593 549.6 265.88654999 553.47368426 281.13918147 553.47368426zM281.13918147 384l389.54736852 0c15.25263149 0 27.84210555-3.87368426 27.84210554-19.61052594 0-15.97894722-12.58947406-28.81052594-27.84210555-28.81052594L281.13918147 335.57894722000003c-15.25263149 0-27.84210555 12.83157871-27.84210555 28.81052594C253.29707593 380.12631574 265.88654999 384 281.13918147 384zM281.13918147 166.10526297c-15.25263149 0-27.84210555 3.87368426-27.84210555 19.61052594 0 15.97894722 12.58947406 28.81052594 27.84210555 28.81052593l389.54736852 0c15.25263149 0 27.84210555-0.72631574 27.84210554-16.70526297 0-15.73684168-12.58947406-31.71578981-27.84210555-31.7157898L281.13918147 166.10526297zM874.78128612-27.578947220000032L314.54970741-27.578947220000032l0 72.63157871 456.61052594 0c30.50526297 0 51.81052594 25.90526297 51.81052594 57.37894722L822.97076019 674.52631574l48.42105277 0 0-699.2L874.78128612-27.578947220000032z"  horiz-adv-x="1024" />

    
    <glyph glyph-name="scan-code" unicode="&#58884;" d="M95.712 525.51c17.119 0 30.699 13.878 30.699 30.997v148.784c0 34.184 28.969 62.164 63.151 62.164h148.785c17.119 0 30.997 14.092 30.997 31.211s-13.878 31.211-30.997 31.211h-148.784c-68.366 0-124.55-56.219-124.55-124.585v-148.785c-0.001-17.119 13.579-30.996 30.698-30.996zM834.295 829.877h-148.785c-17.119 0-30.997-14.092-30.997-31.211s13.878-31.211 30.997-31.211h148.785c34.184 0 60.619-27.981 60.619-62.164v-148.785c0-17.119 14.092-30.997 31.211-30.997s31.211 13.878 31.211 30.997l-0 148.784c0 68.367-54.673 124.587-123.040 124.587zM926.125 240.339c-17.119 0-31.211-13.878-31.211-30.997v-148.785c0-34.184-26.435-60.583-60.619-60.583l-148.785 0c-17.119 0-30.997-14.092-30.997-31.211s13.878-31.211 30.997-31.211l148.785-0c68.366 0 123.040 54.638 123.040 123.004l-0 148.785c0 17.119-14.092 30.997-31.211 30.997zM338.347-0.024h-148.784c-34.184 0-63.151 26.399-63.151 60.583l0 148.784c0 17.119-13.58 30.997-30.699 30.997s-30.699-13.878-30.699-30.997v-148.785c0-68.366 56.184-123.004 124.55-123.004h148.785c17.119 0 30.997 14.092 30.997 31.211s-13.879 31.212-30.998 31.212zM927.286 416.461h-830.714c-17.119 0-30.997-13.58-30.997-30.699s13.878-30.699 30.997-30.699h830.714c17.119 0 30.997 13.58 30.997 30.699s-13.878 30.699-30.997 30.699z"  horiz-adv-x="1024" />

    
    <glyph glyph-name="cry" unicode="&#58984;" d="M512 770.201c211.882 0 384.267-167.634 384.267-373.675 0-206.042-172.386-373.675-384.267-373.675-211.881 0-384.267 167.634-384.267 373.675 0 206.041 172.385 373.675 384.267 373.675v0zM512 839.319c-251.481 0-455.344-198.244-455.344-442.794 0-244.549 203.863-442.795 455.344-442.795 251.481 0 455.345 198.244 455.345 442.795-0.001 244.549-203.865 442.794-455.345 442.794v0 0zM863.781 419.779c0.763-26.123-13.604-54.337-45.257-54.337-31.582 0-52.753 21.904-52.753 56.463 0 66.555-2.775 82.619-2.775 82.619 0 0 99.086-27.572 100.786-84.745v0zM195.758 385.219c-0.764-26.123 13.604-54.336 45.257-54.336 31.582 0 52.753 21.903 52.753 56.463 0 66.555 2.775 82.619 2.775 82.619 0 0-99.085-27.573-100.786-84.746v0zM760.774 534.764c0-21.6-67.401 0-106.618 0-39.217 0-71.078-24.3-71.078 0 0 24.3 31.861 69.119 71.078 69.119 39.217 0 106.618-47.519 106.618-69.119v0zM263.227 534.764c0-21.6 67.399 0 106.618 0 39.218 0 71.078-24.3 71.078 0 0 24.3-31.86 69.119-71.078 69.119-39.218 0-106.618-47.519-106.618-69.119v0zM301.75 190.080c0 95.883 70.765 203.341 210.25 203.341s210.251-107.459 210.251-203.341c0 0-67.643 34.425-210.251 34.425-142.608 0-210.25-34.425-210.25-34.425v0z"  horiz-adv-x="1024" />

    
    <glyph glyph-name="smile" unicode="&#58985;" d="M511.999 776.395c213.305 0 386.846-173.507 386.846-386.845 0-213.268-173.541-386.845-386.846-386.845-213.302 0-386.844 173.577-386.844 386.845 0 213.338 173.541 386.845 386.844 386.845v0zM511.999 839.111c-251.35 0-455.11-203.759-455.11-455.111 0-251.351 203.759-455.111 455.11-455.111 251.353 0 455.113 203.759 455.113 455.111 0 251.351-203.76 455.111-455.113 455.111v0 0zM762.311 450.691c0-24.601-69.051 0-109.228 0s-72.817-27.676-72.817 0c0 27.676 32.64 78.722 72.817 78.722 40.177 0 109.228-54.122 109.228-78.722v0zM261.689 450.691c0-24.601 69.050 0 109.227 0 40.178 0 72.817-27.676 72.817 0 0 27.676-32.64 78.722-72.817 78.722-40.178 0-109.227-54.122-109.227-78.722v0zM739.555 323.017c0-118.046-80.416-250.311-238.933-250.311-158.515 0-238.933 132.266-238.933 250.311 0 0 76.87-42.373 238.933-42.373 162.064 0 238.933 42.373 238.933 42.373v0z"  horiz-adv-x="1024" />

    
    <glyph glyph-name="notice" unicode="&#58885;" d="M792.28 99.917l-29.145 43.803c70.672 47.163 117.252 127.598 117.252 218.934 0 91.349-46.582 171.772-117.252 218.947l29.144 43.79c84.828-56.609 140.735-153.118 140.735-262.736s-55.908-206.141-140.735-262.736zM704.753 231.325l-29.158 43.79c28.272 18.878 46.925 51.012 46.925 87.552 0 36.553-18.653 68.688-46.925 87.565l29.158 43.777c42.413-28.312 70.381-76.52 70.381-131.342s-27.967-103.043-70.381-131.342zM551.49-58.347h-39.477v2.157l-229.901 182.037h-138.486c-29.065 0-52.627 23.548-52.627 52.627v368.375c0 29.065 23.561 52.627 52.627 52.627h138.525l229.862 181.799v2.381h39.477c7.263 0 13.15-5.9 13.15-13.163v-815.688c0-7.264-5.887-13.15-13.15-13.15zM301.506 546.847h-157.881v-368.375h157.881l210.507-167.273v702.922l-210.507-167.273z"  horiz-adv-x="1024" />

    
    <glyph glyph-name="menu" unicode="&#58886;" d="M819.2 615.348h-614.4c-23.044 0-41.718 18.683-41.718 41.718s18.675 41.718 41.718 41.718h614.4c23.044 0 41.718-18.683 41.718-41.718s-18.675-41.718-41.718-41.718zM819.2 342.282h-614.4c-23.044 0-41.718 18.683-41.718 41.718s18.675 41.718 41.718 41.718h614.4c23.044 0 41.718-18.683 41.718-41.718s-18.675-41.718-41.718-41.718zM819.2 69.215h-614.4c-23.044 0-41.718 18.683-41.718 41.718s18.675 41.718 41.718 41.718h614.4c23.044 0 41.718-18.683 41.718-41.718s-18.675-41.718-41.718-41.718z"  horiz-adv-x="1024" />

    
    <glyph glyph-name="type-marriage" unicode="&#58932;" d="M685.484 792.188c45.021 0 81.534-36.507 81.534-81.532 0-45.022-36.512-81.533-81.534-81.533-45.022 0-81.534 36.51-81.534 81.533 0 45.024 36.51 81.532 81.534 81.532v0zM293.051 726.804c40.458 0.913 73.287-32.82 73.287-73.285 0-40.47-32.861-70.203-75.444-70.055-33.592 0.115-49.213 17.967-57.401 21.394-12.959 5.42-37.597 21.961-50.733 34.291 5.906-2.547 21.119-6.205 16.088-3.199-18.443 11.018-44.366 39.372-30.467 31.685 12.004-6.638 19.286-14.723 32.747-14.631 5.725 0.042-18.265 14.921-24.331 23.919-8.459 12.543 26.051-14.549 43.58-13.88 4.24 30.755 28.345 62.759 72.674 63.762v0zM62.593 293.699c-9.674 126.49 100.396 262.396 236.626 263.379-58.141-14.072-106.022-42.185-129.606-80.014 62.096 60.447 139.010 87.36 237.582 65.258-147.585-2.073-213.808-75.593-237.899-135.566 74.255 90.655 161.271 145.776 279.696 113.517-157.214-11.036-239.918-100.284-234.338-212.521 7.122-95.346 79.904-154.818 193.332-153.222 108.048 2.013 180.644 69.417 223.183 183.489 10.706-139.222-108.418-278.794-276.039-286.961-171.746-0.291-281.498 96.428-292.538 242.642v0zM460.152 199.212c33.36-5.558 64.258-1.596 96.065 29.008 26.706 27.873 45.221 54.811 51.089 76.817-48.012-50.214-99.91-85.26-147.154-105.825v0zM387.009 266.716l58.487 0.253c69 197.931 267.111 202.488 312.596 112.214 60.039-175.649-130.942-365.716-447.537-440.477 82.62 0.713 175.567 28.068 271.637 64.789-42.224-37.26-110.047-53.397-174.637-69.495 106.314 5.663 191.908 23.54 333.366 109.16-43.076-32.619-90.705-60.683-141.458-85.62 203.816 73.804 359.62 198.517 361.746 398.536-4.942 232.322-281.767 316.348-458.294 150.282 5.329 27.887 74.783 67.793 146.128 95.677-125.783-17.522-278.794-146.077-266.201-262.75 18.425-18.425 23.417-26.78 4.167-72.566z"  horiz-adv-x="1025" />

    
    <glyph glyph-name="Check-information" unicode="&#58968;" d="M997.070-48.399h-607.933c-13.417 0-24.316 10.898-24.316 24.317v97.27c0 13.442 10.899 24.319 24.316 24.319h607.933c13.421 0 24.321-10.877 24.321-24.319v-97.27c0-13.419-10.9-24.317-24.321-24.317zM997.070 267.741h-607.933c-13.417 0-24.316 10.89-24.316 24.319v97.275c0 13.427 10.899 24.317 24.316 24.317h607.933c13.421 0 24.321-10.89 24.321-24.317v-97.275c0-13.429-10.9-24.319-24.321-24.319zM997.070 583.872h-607.933c-13.417 0-24.316 10.89-24.316 24.319v97.269c0 13.428 10.899 24.317 24.316 24.317h607.933c13.421 0 24.321-10.887 24.321-24.317v-97.269c0-13.429-10.9-24.319-24.321-24.319zM243.233 73.188c-62.48-83.614-97.267-145.905-97.267-145.905h-24.32c0 0-24.598 41.678-48.635 72.95-23.937 31.18-72.95 72.953-72.95 72.953l48.636 48.637 72.949-48.637c0 0 34.886 40.727 72.954 72.954 46.757 39.611 97.267 72.964 97.267 72.964l48.636-48.646c-0.001 0.001-47.806-31.014-97.268-97.269zM89.328 497.539l68.796-68.785 68.797 68.785 51.578-51.593-68.797-68.774 68.797-68.788-51.578-51.579-68.797 68.785-68.796-68.785-51.581 51.579 68.798 68.788-68.798 68.774 51.581 51.593zM243.233 705.462c-62.48-83.628-97.267-145.906-97.267-145.906h-24.32c0 0-24.598 41.666-48.635 72.954-23.937 31.169-72.95 72.954-72.95 72.954l48.636 48.635 72.949-48.635c0 0 34.886 40.715 72.954 72.95 46.757 39.587 97.267 72.954 97.267 72.954l48.636-48.635c-0.001-0.003-47.806-31.040-97.268-97.273z"  horiz-adv-x="1024" />

    
    <glyph glyph-name="time" unicode="&#58988;" d="M512 736c-247.040 0-448-200.96-448-448s200.96-448 448-448 448 200.96 448 448-200.96 448-448 448zM512-95.712c-211.584 0-383.712 172.16-383.712 383.712 0 211.584 172.128 383.712 383.712 383.712 211.552 0 383.712-172.128 383.712-383.712 0-211.552-172.16-383.712-383.712-383.712zM671.968 288h-159.968v223.936c0 17.76-14.24 32.128-32 32.128s-32-14.4-32-32.128v-255.936c0-17.76 14.272-32 32-32h191.968c17.76 0 32.128 14.24 32.128 32s-14.368 32-32.128 32z"  horiz-adv-x="1024" />

    
    <glyph glyph-name="success" unicode="&#58897;" d="M449.486 245.038l-178.64 142.25-79.189-64.444 308.929-319.051c53.412 138.117 221.894 408.381 427.695 600.365l-18.86 44.201c-224.206-139.519-386.717-314.937-459.935-403.319zM939.659 377.857h-44.309c6.754-28.854 10.304-58.928 10.304-89.857 0-217.415-176.255-393.671-393.671-393.671s-393.653 176.255-393.653 393.671 176.255 393.671 393.671 393.671c52.939 0 103.42-10.467 149.514-29.401v46.385c-47.787 17.422-97.995 26.251-149.514 26.251-58.964 0-116.18-11.559-170.084-34.352-52.029-22.010-98.741-53.503-138.864-93.626-40.105-40.105-71.616-86.835-93.607-138.864-22.791-53.885-34.352-111.102-34.352-170.066s11.559-116.18 34.352-170.084c21.991-52.029 53.503-98.759 93.607-138.864 40.123-40.105 86.835-71.616 138.864-93.626 53.903-22.773 111.12-34.334 170.084-34.334 58.946 0 116.199 11.559 170.084 34.352 52.029 22.010 98.759 53.503 138.864 93.626s71.616 86.835 93.626 138.864c22.773 53.885 34.334 111.102 34.334 170.066 0 30.493-3.131 60.512-9.248 89.857z"  horiz-adv-x="1024" />

    
    <glyph glyph-name="local" unicode="&#58926;" d="M894.249-54.807h-781.907c-18.086 0-33.162 7.822-41.37 21.466-8.201 13.644-8.045 30.627 0.433 46.603l113.137 213.097c7.173 13.502 23.947 18.64 37.449 11.473 13.509-7.173 18.647-23.94 11.473-37.449l-106.072-199.779 748.603-0.027-186.412 306.749-136.943-225.388c-9.31-15.327-23.771-24.197-39.666-24.326-16.017-0.771-30.506 8.485-40.072 23.657-8.573 13.59-209.731 334.476-203.903 488.057 6.247 164.527 123.373 255.59 235.841 260.511 106.964 4.55 224.597-70.456 247.092-248.829 1.914-15.172-8.836-29.025-24.015-30.938-15.091-1.906-29.025 8.836-30.938 24.015-19.316 153.209-114.158 203.747-189.718 200.413-87.128-3.807-177.941-76.229-182.917-207.27-4.124-108.735 128.045-347.274 188.109-444.72l137.341 226.038c9.364 15.408 23.859 24.251 39.775 24.251 15.908 0 30.411-8.836 39.768-24.244l203.482-334.787c9.567-15.747 10.568-32.757 2.738-46.677-7.829-13.914-22.885-21.899-41.309-21.899zM513.914 436.962c-55.291 0-100.278 44.98-100.278 100.271s44.988 100.278 100.278 100.278 100.271-44.988 100.271-100.278-44.98-100.271-100.271-100.271zM513.914 582.125c-24.752 0-44.892-20.141-44.892-44.892s20.141-44.885 44.892-44.885 44.885 20.134 44.885 44.885c-0 24.752-20.134 44.892-44.885 44.892z"  horiz-adv-x="1024" />

    
    <glyph glyph-name="gengduo" unicode="&#58907;" d="M512 748.064c-247.04 0-448-201.024-448-448 0-247.04 200.96-448 448-448 246.976 0.064 448 201.024 448 448C960 547.04 758.976 748 512 748.064zM896 300.064c0-212.096-171.968-384.064-384-384-212.032 0-384 171.968-384 384 0 212.032 171.968 384 384 384C724.032 684.064 896 512.096 896 300.064zM480 556 480 332 256 332 256 268 480 268 480 44.064 544 44.064 544 268 767.936 268 767.936 332 544 332 544 556Z"  horiz-adv-x="1024" />

    
    <glyph glyph-name="remove" unicode="&#59004;" d="M623.076818 147.07698600000003c-17.597797 0-31.82073 14.222933-31.82073 31.82073L591.256088 528.973836c0 17.597797 14.222933 31.826869 31.82073 31.826869s31.826869-14.229073 31.826869-31.826869l0-350.075097C654.904711 161.29991900000005 640.675638 147.07698600000003 623.076818 147.07698600000003L623.076818 147.07698600000003zM432.131975 147.07698600000003c-17.603937 0-31.826869 14.222933-31.826869 31.82073L400.305105 528.973836c0 17.597797 14.222933 31.826869 31.826869 31.826869 17.597797 0 31.82073-14.229073 31.82073-31.826869l0-350.075097C463.952704 161.29991900000005 449.729771 147.07698600000003 432.131975 147.07698600000003L432.131975 147.07698600000003zM941.325046 688.09795l-159.124114 0 0 63.648622c0 52.639894-42.485627 95.475492-94.741781 95.475492L368.477212 847.222063c-52.633754 0-95.469352-42.835597-95.469352-95.475492l0-63.648622-159.124114 0c-17.603937 0-31.826869-14.222933-31.826869-31.826869 0-17.597797 14.222933-31.82073 31.826869-31.82073l827.441299 0c17.597797 0 31.826869 14.222933 31.826869 31.82073C973.152938 673.8750170000001 958.923866 688.09795 941.325046 688.09795L941.325046 688.09795zM336.656483 751.746572c0 17.536398 14.286378 31.826869 31.82073 31.826869l318.981938 0c17.444301 0 31.094182-13.972223 31.094182-31.826869l0-63.648622L336.656483 688.09795 336.656483 751.746572 336.656483 751.746572zM750.506069-43.87399700000003L304.892035-43.87399700000003c-52.634778 0-95.470375 42.835597-95.470375 95.475492L209.42166 529.4496730000001c0 17.569144 14.257725 31.825846 31.822776 31.825846 17.569144 0 31.825846-14.256702 31.825846-31.825846l0-477.848179c0-17.569144 14.287401-31.826869 31.822776-31.826869l445.61301 0c17.565051 0 31.822776 14.257725 31.822776 31.826869L782.328845 528.1480280000001c0 17.565051 14.228049 31.822776 31.825846 31.822776 17.59882 0 31.826869-14.257725 31.826869-31.822776l0-476.546533C845.981561-1.0384000000000242 803.140847-43.87399700000003 750.506069-43.87399700000003L750.506069-43.87399700000003z"  horiz-adv-x="1024" />

    
    <glyph glyph-name="magnifier" unicode="&#58998;" d="M930.318364 102.71461499999998c17.188474-17.188474 27.822672-40.919968 27.822672-67.146283 0-52.476165-42.516326-95.003747-95.02626-95.003747-26.226315 0-49.969065 10.622942-67.157539 27.822672l0 0-156.799162 156.821675c-56.579623-33.399691-122.298394-52.892651-192.761212-52.892651-209.859635 0-380.013967 170.09805-380.013967 379.968941 0 209.893404 170.154331 379.991454 380.013967 379.991454 209.870892 0 380.025223-170.09805 380.025223-379.991454 0-70.417793-19.549242-136.14782-52.937676-192.716186L930.318364 102.71461499999998 930.318364 102.71461499999998 930.318364 102.71461499999998zM446.396863 737.296465c-157.38347 0-284.987706-127.59298-284.987706-285.010219 0-157.372214 127.604236-284.987706 284.987706-284.987706 157.394726 0 284.998963 127.615493 284.998963 284.987706C731.396849 609.703485 603.792613 737.296465 446.396863 737.296465L446.396863 737.296465z"  horiz-adv-x="1024" />

    
    <glyph glyph-name="type-relocated" unicode="&#58933;" d="M858.893 352.728c23.091-13.621 52.22-37.066 73.553-53.11 37.945-28.572 34.685-55.599 0-112.056-27.564-44.874-63.675-65.638-121.913-95.41-36.111-18.446-55.33-18.79-102.167-16.645-231.437 10.595-465.232 55.084-612.531 151.802-15.895 10.425-48.992 34.792-20.109 69.306 2.080 2.531 4.268 4.955 6.456 7.378 0.054-7.851 0.278-15.745 0.665-23.595l0.901-18.297 15.262-8.301c147.898-80.18 379.764-118.962 536.21-83.034 53.229 12.249 106.651 40.778 150.817 78.272-1.845-0.301-3.732-0.429-5.588-0.429-8.592 0-16.495 2.617-23.692 7.443-5.416 0.021-10.81 0.3-16.109 0.879-44.402-32.218-94.894-55.942-143.169-60.232l-9.224 95.539-71.965 2.617-11.518-101.116c-50.762 1.029-102.243 6.156-151.534 14.243l-4.322 99.529-66.067 8.944-16.13-90.584c-61.197 15.316-115.059 34.878-154.333 56.2-20.024 412.937 423.189 520.423 623.996 297.642-77.575-19.091-152.811-90.819-129.054-205.836 0 0 16.044 144.961 149.7 141.786 7.121 4.741 14.94 7.293 23.423 7.293 22.672 0 41.045-18.404 52.434-48.156 8.859-23.188 14.329-54.72 14.329-88.997 0-34.342-5.471-65.853-14.329-89.062l-0.406-0.901c7.957 9.567 15.262 19.477 21.825 29.558 8.289 12.743 6.422 21.367 4.589 27.329v0zM770.508 460.021c-7.11-18.575-11.476-44.831-11.476-74.216 0-29.43 4.366-55.685 11.476-74.239 4.601-12.077 8.269-19.499 9.942-19.499 1.641 0 5.299 7.422 9.899 19.499 7.078 18.554 11.487 44.809 11.487 74.239 0 29.386-4.408 55.641-11.487 74.216-4.601 12.056-8.258 19.477-9.899 19.477-1.673 0.001-5.342-7.42-9.942-19.477z"  horiz-adv-x="1024" />

    
    <glyph glyph-name="approve" unicode="&#58883;" d="M123.123 713.050h777.752c16.515 0 29.915 13.399 29.915 29.914s-13.4 29.913-29.915 29.913h-777.752c-16.525 0-29.914-13.399-29.914-29.914s13.387-29.913 29.914-29.913zM123.123 473.74h777.752c16.515 0 29.915 13.399 29.915 29.914s-13.4 29.914-29.915 29.914h-777.752c-16.525 0-29.914-13.399-29.914-29.914s13.387-29.914 29.914-29.914zM468.302 54.953h-345.179c-16.525 0-29.914-13.381-29.914-29.915 0-16.515 13.387-29.915 29.914-29.915h386.531c-16.264 17.959-30.208 38.058-41.352 59.829zM123.123 234.431h320.082c4.082 20.876 10.497 40.915 18.983 59.827h-339.066c-16.525 0-29.914-13.378-29.914-29.912-0.001-16.515 13.387-29.915 29.914-29.915zM677.954 131.523l-68.8 68.793-25.742-25.762 81.659-81.656c7.132-7.129 18.653-7.129 25.762 0l155.784 155.775-25.746 25.745-142.918-142.894zM715.017 419.723c-131.851 0-238.747-106.898-238.747-238.746 0-131.838 106.896-238.734 238.747-238.734 131.844 0 238.745 106.898 238.745 238.734 0 131.843-106.9 238.746-238.745 238.746zM715.017-21.038c-111.566 0-202.026 90.459-202.026 202.014 0 111.562 90.459 202.024 202.026 202.024 111.559 0 202.022-90.461 202.022-202.024 0-111.553-90.463-202.014-202.022-202.014z"  horiz-adv-x="1024" />

    
    <glyph glyph-name="dynamic" unicode="&#58887;" d="M895.324 797.781h-364.965c-28.777 0-34.039-12.579-61.492-41.286l-359.27-358.186c-44.112-43.952-44.112-115.244 0-159.186l279.426-278.597c44.102-43.961 115.579-43.961 159.69 0l359.299 358.185c23.101 23.067 39.476 34.533 39.476 63.248v363.854c0 28.681-23.34 51.968-52.163 51.968zM508.812 0.319c-22.061-21.971-57.829-21.971-79.854 0l-279.454 278.606c-22.051 21.98-22.051 57.607 0 79.588l40.324 40.209 358.46-359.033-39.476-39.371zM895.324 407.948c0-14.353-13.188-35.415-27.242-49.435l-279.471-278.597-358.847 358.61 279.046 278.163c12.8 12.774 33.226 29.122 47.633 29.122h312.831c14.397 0 26.049-11.644 26.049-25.988v-311.876zM608.607 617.213c-44.129-43.97-44.129-115.226 0-159.204 44.076-43.952 115.57-43.952 159.671 0 44.084 43.979 44.084 115.234 0 159.204-44.102 43.943-115.596 43.943-159.671 0zM728.352 497.813c-22.060-21.971-57.802-21.971-79.853 0-22.034 21.963-22.034 57.6 0 79.606 22.051 21.971 57.793 21.971 79.853 0 22.043-22.007 22.043-57.644 0-79.606z"  horiz-adv-x="1024" />

    
    <glyph glyph-name="line-down" unicode="&#58986;" d="M999.502 540.71c-0.07 0.523-0.169 1.011-0.262 1.402-0.436 2.017-1.008 3.973-1.849 5.86l-84.023 202.991c-14.563 42.079-56.374 67.903-105.265 67.999h-589.755c-49.563 0-88.052-25.567-101.978-66.015l-90.332-207.124c-0.436-1.207-0.874-3.027-1.278-4.854-6.575-19.539-9.863-39.632-9.863-59.764 0.067-70.831 40.102-135.476 104.458-168.79 0 0 0-0.033 0.034-0.033 0.034 0 0.034 0 0.034-0.032v0c0 0 0.034 0 0.034-0.066 26.511-13.711 57.651-20.649 92.75-20.649 58.83 0.163 113.286 25.238 150.435 68.161 36.944-42.565 91.004-67.478 149.725-67.836 58.256 0.451 112.151 25.431 148.96 67.999 37.117-42.928 91.676-67.903 150.801-67.903 35.737 0.161 67.55 7.456 94.297 21.687 63.387 33.607 102.715 98.063 102.684 168.176 0.065 20.159-3.357 40.383-9.599 58.784v0 0 0zM872.086 366.009c-16.237-8.626-36.505-13.056-60.063-13.188-43.653 0-83.419 21.497-106.671 57.999-1.649 3.453-4.431 9.157-9.569 14.659-5.938 6.447-16.678 14.067-34.362 14.067-14.294 0-27.212-5.665-34.493-14.365-4.868-5.306-7.517-10.551-9.396-14.364-22.955-36.016-62.418-57.739-105.17-58.066-43.316 0.229-82.879 21.886-105.969 58.197-1.609 3.19-4.295 8.599-8.486 13.161-16.849 19.507-54.565 18.498-69.264 1.498-5.401-5.732-8.251-11.531-10.066-15.438-23.152-36.055-62.983-57.678-106.442-57.775-23.152 0-42.987 4.202-58.958 12.477h-0.101c-41.005 21.169-75.646 71.268-75.68 116.337 0 13.325 2.279 26.775 6.878 39.833 0.335 0.946 0.605 1.985 0.874 3.06l88.953 212.934c1.814 5.244 7.351 21.104 35.001 21.104h608.268c11.374-0.647 30.971-2.604 37.919-22.469l83.284-210.196c0.336-1.469 0.704-2.87 1.074-4.007 4.635-13.124 6.912-26.448 6.912-39.668 0.073-44.514-34.132-94.388-74.471-115.786v0 0 0zM903.539 263.20899999999995c-19.833 0-31.269-15.566-31.269-34.782l0.07-194.237c0-10.777-9.06-19.57-20.133-19.605l-692.756-0.423c-11.108 0-20.135 8.699-20.135 19.412l-0.27 191.008c-0.034 19.185-11.502 34.684-31.269 34.684h-0.067c-19.764-0.034-31.232-15.598-31.198-34.85l0.235-186.444c0-49.045 41.204-88.94 91.842-88.94l674.58 0.42c50.566 0.097 91.709 40.093 91.709 89.202l-0.067 189.769c0.001 19.25-11.472 34.784-31.269 34.784v0 0 0zM792.461 515.615h-573.546c-19.795 0-35.839 11.163-35.839 30.348 0 19.181 16.076 30.348 35.839 30.348h573.545c19.827 0 35.839-11.166 35.839-30.348 0.001-19.185-16.007-30.348-35.838-30.348v0 0 0z"  horiz-adv-x="1024" />

    
    <glyph glyph-name="the-medical" unicode="&#58969;" d="M896 576c35.312 0 64-28.688 64-64v-512c0-35.312-28.688-64-64-64h-768c-35.282 0-64 28.688-64 64v512c0 35.312 28.718 64 64 64h768M896 640h-768c-70.688 0-128-57.312-128-128v-512c0-70.688 57.312-128 128-128h768c70.688 0 128 57.312 128 128v512c0 70.688-57.312 128-128 128v0zM320 704v64c0 35.25 28.718 64 64 64h256c35.312 0 64-28.75 64-64v-64h64v64c0 70.688-57.312 128-128 128h-256c-70.688 0-128-57.312-128-128v-64h64zM704 320h-128v128h-128v-128h-128v-128h128v-128h128v128h128v128z"  horiz-adv-x="1024" />

    
    <glyph glyph-name="the-business" unicode="&#58970;" d="M975.34 691.947h-272.484c-5.315 99.25-83.886 169.811-180.297 169.811s-174.909-70.487-180.224-169.811h-293.674c-25.632 0-46.385-20.681-46.385-46.166v-693.298c0-25.559 20.753-46.239 46.385-46.239h926.752c25.632 0 46.385 20.681 46.385 46.239v693.298c-0.073 25.486-20.826 46.166-46.458 46.166v0zM517.607 787.993c62.478 0 101.217-33.35 104.858-95.973h-209.569c3.568 62.623 42.307 95.973 104.711 95.973v0zM936.746-9.653h-847.963v361.978h293.601v-71.652h-0.073v-60.585h284.499v60.657h-0.073v71.58h270.009v-361.978zM448.502 278.414v73.91h148.111v-73.91h-148.111zM935.29 447.715h-841.991v168.355h841.991v-168.355zM957.863 436.793z"  horiz-adv-x="1024" />

    
    <glyph glyph-name="Many-of-the-book" unicode="&#58963;" d="M604.753 873.868c0 0-155.193-0.050-169.794-0.050 0.066 0-0.135-0.013-0.202-0.016-24.781-2.276-39.905-23.994-39.905-47.378v-261.040c-4.537 4.956-14.15 18.71-21.247 20.633 0 0-95.55 25.453-119.963 32.476-17.91 3.134-34.72-6.947-39.102-23.449l-167.042-629.433c-4.643-17.494 6.847-35.862 25.611-40.949 0 0 106.356-31.077 119.815-32.447 0.048-0.007 0.098-0.018 0.143-0.027 17.913-3.134 34.721 6.947 39.102 23.449l162.681 602.287v-581.408c0-24.793 20.337-47.461 46.932-47.461 0 0 148.819 0.535 164.263 0 24.781 2.277 46.932 24.419 46.932 47.805v892.047c0 24.793-21.635 44.964-48.228 44.964zM297.637 360.46l-10.229-41.219c-2.271-9.153-11.425-14.719-20.407-12.403l-40.436 10.426c-8.982 2.315-14.439 11.645-12.171 20.8l10.229 41.219c2.271 9.152 11.425 14.717 20.406 12.403l40.438-10.426c8.981-2.316 14.441-11.646 12.171-20.8zM333.020 471.983l-9.936-40.038c-2.207-8.891-11.099-14.295-19.821-12.048l-39.281 10.127c-8.722 2.25-14.023 11.313-11.821 20.204l9.937 40.037c2.205 8.891 11.099 14.295 19.821 12.048l39.28-10.127c8.723-2.251 14.025-11.315 11.821-20.203zM569.339 473.911c0-10.217-8.219-18.527-18.322-18.527h-45.489c-10.103 0-18.324 8.311-18.324 18.527v46.004c0 10.213 8.219 18.527 18.324 18.527h45.489c10.102 0 18.322-8.313 18.322-18.527v-46.004zM569.339 628.16c0-10.213-8.219-18.525-18.322-18.525h-45.489c-10.103 0-18.324 8.311-18.324 18.525v46.005c0 10.217 8.219 18.527 18.324 18.527h45.489c10.102 0 18.322-8.311 18.322-18.527v-46.005zM931.775 506.039l-170.389-0.037c-0.444 0-0.877 0.006-1.313 0.017-1.124 0.021-2.234 0.038-3.391-0.033-0.069-0.002-0.139-0.006-0.207-0.016-25.556-2.305-44.823-21.908-44.823-45.6v-525.757c0-25.11 22.31-45.543 49.734-45.543h160.321c0.49 0 0.971 0.023 1.456 0.037h8.611c0.444 0 0.881-0.007 1.313-0.017 1.124-0.021 2.234-0.038 3.391 0.033 0.069 0.002 0.139 0.007 0.207 0.016 25.556 2.305 44.823 21.91 44.823 45.6v525.757c0 25.11-22.311 45.543-49.734 45.543zM886.132 307.797c0-10.217-8.219-18.53-18.322-18.53h-45.489c-10.102 0-18.322 8.313-18.322 18.53v46.004c0 10.213 8.219 18.529 18.322 18.529h45.49c10.102 0 18.322-8.313 18.322-18.529v-46.004z"  horiz-adv-x="1024" />

    
    <glyph glyph-name="type-criminal" unicode="&#58934;" d="M123.311 622.882c12.624 1.368 24.603 1.806 36.202 4.137 15.21 3.058 28.792 10.193 40.747 20.285 9.978 8.421 18.217 18.443 23.419 30.201 4.66 10.533 7.608 21.916 10.397 33.149 1.958 7.889 2.382 16.159 3.521 24.476 17.707 6.581 35.567 13.25 53.447 19.859 33.658 12.442 67.322 24.87 100.997 37.268 21.672 7.98 43.36 15.91 65.057 23.827 13.422 4.897 27.435 8.593 40.112 14.959 9.003 4.522 16.65 3.208 24.847 0.403 19.649-6.724 39.249-13.605 58.768-20.698 29.666-10.779 59.245-21.816 88.873-32.703 36.957-13.582 73.929-27.127 110.897-40.68 1.878-0.688 3.78-1.308 5.063-1.75 2.792-13.906 5.022-27.714 8.426-41.23 3.668-14.564 11.066-27.331 21.224-38.547 14.21-15.693 31.823-25.364 52.333-29.571 8.153-1.672 16.633-1.779 24.975-2.484 2.506-0.211 5.044-0.032 8.347-0.032 0.995-11.028 2.313-21.787 2.864-32.585 0.955-18.692 1.932-37.406 1.964-56.115 0.028-16.501-0.557-33.063-2.063-49.489-2.059-22.442-5.073-44.803-7.994-67.158-4.207-32.209-10.869-63.976-20.485-94.962-8.314-26.788-17.175-53.514-27.794-79.447-8.758-21.388-20.17-41.716-30.894-62.26-13.3-25.475-29.906-48.856-47.438-71.541-7.986-10.336-16.821-20.035-25.52-29.803-6.286-7.058-12.7-14.048-19.553-20.544-20.067-19.024-41.062-36.907-63.645-52.991-28.227-20.101-58.069-37.33-89.324-52.096-14.573-6.883-29.346-13.731-44.673-18.515-12.38-3.864-25.481-2.669-37.765 3.082-20.22 9.466-40.907 17.997-60.778 28.132-27.487 14.023-53.666 30.389-77.843 49.637-14.547 11.581-28.333 24.116-42.476 36.204-16.957 14.494-31.23 31.485-45.536 48.484-16.474 19.576-31.154 40.462-44.473 62.207-14.281 23.316-27.454 47.348-37.539 72.856-8.858 22.403-18.328 44.664-25.428 67.634-7.931 25.662-13.962 51.945-19.924 78.162-3.907 17.178-6.524 34.672-9.139 52.11-1.637 10.913-2.478 21.971-3.173 32.994-1.242 19.646-2.168 39.314-3.097 58.979-0.486 10.279-1.36 20.601-0.889 30.851 0.823 17.922 2.54 35.806 3.908 53.703 0.301 3.993 0.722 7.971 1.057 11.602zM283.442 697.994c-0.912-3.897-1.697-7.465-2.586-11.007-5.884-23.497-16.251-44.865-32.212-63.059-20.158-22.981-45.381-38.168-75.074-45.816-1.342-0.345-3.112-1.473-3.487-2.625-0.812-2.496-1.202-5.252-1.145-7.887 0.584-26.51 0.963-53.030 2.1-79.517 0.623-14.531 2.18-29.056 4.041-43.49 2.319-18.003 4.439-36.119 8.361-53.807 5.42-24.447 11.938-48.685 18.895-72.752 9.218-31.888 22.179-62.406 37.25-91.922 11.968-23.44 25.263-46.224 41.457-67.081 11.689-15.048 23.659-29.917 36.218-44.24 8.867-10.112 18.556-19.59 28.558-28.593 11.43-10.29 23.369-20.060 35.522-29.497 22.423-17.412 46.537-32.315 71.776-45.223 16.598-8.489 33.78-15.853 50.839-23.408 3.345-1.483 7.836-3.054 10.907-1.995 9.872 3.408 19.49 7.687 28.903 12.257 14.69 7.137 29.445 14.24 43.586 22.377 14.553 8.375 28.733 17.503 42.457 27.18 11.993 8.455 23.336 17.881 34.575 27.342 10.413 8.766 20.668 17.782 30.315 27.37 8.32 8.268 15.963 17.274 23.407 26.361 9.727 11.872 19.401 23.832 28.317 36.311 17.271 24.171 32.233 49.759 44.667 76.775 4.869 10.583 10.197 21.030 14.113 31.972 8.334 23.281 16.699 46.613 23.511 70.363 6.17 21.514 10.998 43.484 15.111 65.498 3.701 19.813 6.19 39.9 8.18 59.968 1.807 18.225 2.361 36.579 3.178 54.89 0.379 8.466 0.197 16.964 0.026 25.444-0.162 8.079-0.514 16.162-1.111 24.218-0.097 1.315-1.659 2.913-2.959 3.651-1.836 1.043-4.033 1.511-6.123 2.051-28.18 7.272-51.303 22.91-70.11 44.528-18.29 21.018-29.057 46.019-34.121 73.406-0.596 0.11-1.118 0.13-1.585 0.302-36.323 13.372-72.641 26.762-108.963 40.14-36.009 13.264-72.102 26.297-107.962 39.954-7.543 2.873-13.969 2.802-21.36-0.026-30.253-11.575-60.664-22.739-91.044-33.979-18.692-6.915-37.445-13.669-56.156-20.539-23.395-8.593-46.776-17.231-70.272-25.893zM352.627 188.861c3.058 18.367 5.877 35.899 8.917 53.394 3.219 18.518 6.757 36.98 9.954 55.502 2.917 16.901 5.573 33.849 8.327 50.777 0.75 4.605 0.864 9.412 2.333 13.773 1.175 3.485 0.086 5.269-2.137 7.432-15.898 15.465-31.716 31.013-47.58 46.509-12.954 12.654-25.932 25.282-38.914 37.906-11.643 11.323-23.309 22.624-34.953 33.948-1.188 1.154-2.283 2.405-4.033 4.26 7.209 1.114 13.691 2.129 20.18 3.11 13.178 1.991 26.35 4.022 39.542 5.926 12.713 1.834 25.453 3.467 38.167 5.3 13.028 1.877 26.035 3.904 39.056 5.832 9.895 1.467 19.794 2.911 29.7 4.309 3.143 0.443 6.357 0.489 9.443 1.16 1.162 0.252 2.44 1.563 3.012 2.715 13.425 27.098 26.737 54.252 40.119 81.371 12.422 25.165 24.901 50.304 37.366 75.448 0.196 0.397 0.523 0.727 1.129 1.552 7.136-14.197 14.151-27.992 21.023-41.858 18.478-37.277 37.118-74.478 55.099-111.994 2.715-5.666 5.939-7.667 11.493-8.377 17.535-2.244 35.056-4.627 52.553-7.173 14.997-2.181 29.933-4.778 44.933-6.964 13.044-1.902 26.15-3.38 39.201-5.245 10.785-1.54 21.528-3.373 33.559-5.278-12.876-12.388-24.915-23.971-36.953-35.557-1.098-1.058-2.192-2.122-3.279-3.192-24.489-24.151-48.961-48.318-73.484-72.431-2.993-2.944-5.98-6.024-9.452-8.313-5.845-3.854-5.625-9.039-4.586-14.886 3.117-17.528 6.007-35.098 9.097-52.631 2.917-16.544 6.107-33.040 8.944-49.599 2.927-17.068 5.545-34.192 8.362-51.282 0.804-4.871 1.824-9.705 2.886-15.294-9.577 4.968-18.689 9.632-27.741 14.404-7.966 4.198-15.824 8.591-23.801 12.755-17.464 9.116-35.006 18.077-52.453 27.222-17.441 9.139-34.833 18.371-52.175 27.698-2.472 1.329-4.345 1.316-6.83 0.006-28.633-15.115-57.336-30.098-86.008-45.139-18.767-9.841-37.524-19.702-56.271-29.587-4.403-2.325-8.739-4.771-13.745-7.508z"  horiz-adv-x="1024" />

    
    <glyph glyph-name="Laws-regulations" unicode="&#59011;" d="M972.718 719.872h-76.623v26.706l-26.050 12.561c-5.243 2.566-129.161 61.767-237.622 61.767-50.736 0-91.369-12.889-121.35-38.338-29.983 25.45-70.56 38.338-121.35 38.338-108.407 0-232.38-59.201-237.568-61.713l-26.050-12.561v-26.761h-74.82c-17.039 0-30.802-16.93-30.802-37.847v-697.085c0-20.917 13.762-37.847 30.802-37.847h921.491c16.985 0 30.748 16.93 30.748 37.847v697.085c0 20.917-13.762 37.847-30.802 37.847zM855.026 712.226v-553.233c-63.57 26.761-232.38 87.381-323.42 22.010v557.22c25.668 23.593 61.822 32.222 100.816 32.222 101.908 0 222.604-58.218 222.604-58.218zM808.55 124.532h-270.555c52.811 61.549 183.501 31.949 270.555 0zM389.721 770.444c38.994 0 75.148-8.684 100.816-32.222v-557.22c-91.040 65.372-259.851 4.751-323.42-22.010v553.233c0 0 120.695 58.218 222.604 58.218zM484.147 124.532h-270.609c86.999 31.949 217.798 61.604 270.609 0zM941.971 22.787h-859.941v621.391h44.073v-570.163h769.939v570.163h45.875v-621.391z"  horiz-adv-x="1024" />

    
    <glyph glyph-name="huifu" unicode="&#58913;" d="M394.356115 481.117898c0 23.008017-18.646686 41.654702-41.654702 41.654702-23.006993 0-41.654702-18.646686-41.654702-41.654702 0-23.006993 18.646686-41.653679 41.654702-41.653679C375.709429 439.464219 394.356115 458.109882 394.356115 481.117898zM560.974923 480.239901c0 23.00597-18.647709 41.653679-41.653679 41.653679-23.008017 0-41.655725-18.647709-41.655725-41.653679 0-23.008017 18.647709-41.655725 41.655725-41.655725C542.328237 438.584176 560.974923 457.231885 560.974923 480.239901zM727.593731 481.117898c0 23.008017-18.647709 41.654702-41.655725 41.654702-23.00597 0-41.653679-18.646686-41.653679-41.654702 0-23.006993 18.647709-41.653679 41.653679-41.653679C708.947046 439.464219 727.593731 458.109882 727.593731 481.117898zM872.944144 717.991794c-14.480806 23.057135-40.121789 38.395472-69.359694 38.395472l-603.750657 0c-29.236881 0-54.877865-15.338337-69.359694-38.395472-7.912204-12.598946-12.504802-27.493168-12.504802-43.469024l0-386.809743c0-45.213761 36.651758-81.864496 81.864496-81.864496l122.17048 0 0 0.023536c0.312108-0.01228 0.623193-0.023536 0.938372-0.023536 12.951987 0 23.451108 10.595312 23.451108 23.661909 0 13.068643-10.499122 23.663956-23.451108 23.663956-0.7552 0-1.50119-0.039909-2.237971-0.109494l-91.628884 0c-33.909297 0-61.398372 27.489074-61.398372 61.398372l0 331.551208c0 33.909297 27.489074 61.398372 61.398372 61.398372l542.352285 0c33.909297 0 61.398372-27.489074 61.398372-61.398372l0-331.551208c0-33.909297-27.489074-61.398372-61.398372-61.398372L529.288247 253.064902l-6.291287-6.260587c-0.002047-0.001023-0.00307-0.002047-0.004093-0.00307L368.397906 93.771943c-8.538467-8.452509-7.402597-23.443945 2.537799-33.485649 9.939373-10.041704 24.918529-11.330046 33.456996-2.87856l149.960407 148.44182 249.232364 0c45.213761 0 81.864496 36.650735 81.864496 81.864496l0 386.809743C885.448946 690.498626 880.857371 705.393871 872.944144 717.991794z"  horiz-adv-x="1024" />

    
    <glyph glyph-name="go-down" unicode="&#58991;" d="M344.47424171 241.20852593999996L512.70207033-50.17261055999995 680.93106176 241.20852593999996 566.25731357 241.20852593999996 566.25731357 821.89602589 459.1479899 821.89602589 459.1479899 241.20852593999996Z"  horiz-adv-x="1024" />

    
    <glyph glyph-name="users" unicode="&#58888;" d="M645.552 423.023c55.46 41.499 91.583 107.962 91.583 183.127 0 125.838-100.795 227.848-225.135 227.848s-225.136-102.010-225.136-227.848c0-75.166 36.123-141.629 91.583-183.127-170.605-61.433-294.205-236.849-294.205-443.454 0-18.879 15.115-34.178 33.771-34.178s33.771 15.298 33.771 34.178c0 130.744 57.4 246.632 145.492 319.391l180.956-142.435v-188.348c0-18.879 15.115-34.178 33.771-34.178s33.771 15.298 33.771 34.178v188.348l180.955 142.434c88.091-72.759 145.492-188.648 145.492-319.391 0-18.879 15.115-34.178 33.771-34.178 18.654 0 33.771 15.298 33.771 34.178 0 206.604-123.6 382.022-294.205 443.454zM354.405 606.152c0 87.945 70.695 159.495 157.595 159.495s157.595-71.55 157.595-159.495-70.695-159.492-157.595-159.492-157.595 71.547-157.595 159.492zM512 216.542l-155.303 122.249c47.098 25.058 99.645 39.516 155.303 39.516s108.204-14.458 155.303-39.516l-155.303-122.249z"  horiz-adv-x="1024" />

    
    <glyph glyph-name="approval-query" unicode="&#58889;" d="M521.024 395.852c-79.703-82.965-77.033-214.802 5.935-294.493 82.965-79.695 214.802-77.018 294.493 5.949 79.68 82.95 77.020 214.8-5.957 294.479-82.94 79.692-214.79 77.019-294.47-5.934v0zM767.366 159.227c-50.995-53.093-135.363-54.781-188.47-3.794-53.108 51.005-54.807 135.388-3.809 188.483 51.007 53.11 135.388 54.796 188.497 3.798 53.093-50.995 54.782-135.375 3.783-188.486v0zM775.83 86.315l108.071-103.801c21.187-20.354 54.852-19.683 75.211 1.519 20.347 21.181 19.676 54.851-1.513 75.211l-108.071 103.783-73.697-76.714zM775.83 86.315zM664.633 520.187v-46.645c13.841 2.356 28.062 3.6 42.575 3.6 6.982 0 13.894-0.297 20.734-0.854v43.9h-63.308zM785.685 698.177c22.715 21.95 22.715 58.281 0 80.986l-20.439 20.434c-22.706 22.715-59.044 22.715-81.747 0l-38.771-38.437 101.905-101.865 39.053 38.881zM280.784 301.043l133.245 32.292-97.646 96.882zM437.495 351.504l284.255 283.017-101.963 101.921-285.236-282.754zM476.642 123.662h-339.667c-8.607 0-15.606 7.001-15.606 15.606v568.244c0 8.607 6.999 15.606 15.606 15.606h396.497v63.307h-396.497c-43.508 0-78.913-35.404-78.913-78.916v-568.244c0-43.513 35.401-78.912 78.913-78.912h379.782c-16.338 18.857-29.908 40.173-40.114 63.305z"  horiz-adv-x="1024" />

    
    <glyph glyph-name="xiaoxi" unicode="&#58990;" d="M834.2 786.78L187.4 786.78c-53.52 0-97.02-43.56-97.02-96.96l0-517.32c0-53.7 43.56-97.14 97.02-97.14l213 0 87.48-87.54c6.3-6.24 14.64-9.42 22.86-9.42 8.28 0 16.62 3.18 22.86 9.42l87.54 87.54 213 0c53.46 0 96.96 43.5 96.96 97.14L931.1 689.8199999999999C931.16 743.22 887.66 786.78 834.2 786.78L834.2 786.78zM332.9 398.7c-26.7 0-48.48 21.72-48.48 48.54 0 26.76 21.78 48.54 48.48 48.54 26.76 0 48.48-21.78 48.48-48.54C381.38 420.42 359.66 398.7 332.9 398.7L332.9 398.7zM526.94 398.7c-26.7 0-48.48 21.72-48.48 48.54 0 26.76 21.78 48.54 48.48 48.54 26.76 0 48.6-21.78 48.6-48.54C575.54 420.42 553.7 398.7 526.94 398.7L526.94 398.7zM720.98 398.7c-26.82 0-48.54 21.72-48.54 48.54 0 26.76 21.66 48.54 48.54 48.54 26.7 0 48.54-21.78 48.54-48.54C769.52 420.42 747.74 398.7 720.98 398.7L720.98 398.7zM720.98 398.7"  horiz-adv-x="1024" />

    
    <glyph glyph-name="news" unicode="&#58890;" d="M850.214 819.911h-434.67c-68.59 0-124.192-55.601-124.192-124.192v-107.010h-241.45v-513.947c0-68.59 55.601-124.192 124.192-124.192h676.121c68.59 0 124.192 55.601 124.192 124.192v620.957c-0.001 68.589-55.603 124.192-124.193 124.192zM291.588 99.602c0-48.012-38.922-86.933-86.933-86.933h-5.723c-48.012 0-86.933 38.922-86.933 86.933v322.182h0.237v104.829h179.117v-293.405h0.237v-133.607zM912.31 99.602c0-48.012-38.922-86.933-86.933-86.933h-488.309c10.566 18.267 16.619 39.474 16.619 62.095v273.937h-0.237v322.182c0 48.012 38.922 86.933 86.933 86.933h384.993c48.012 0 86.933-38.922 86.933-86.933v-571.28zM819.166 594.092h-372.575c-17.148 0-31.049-13.902-31.049-31.049s13.902-31.049 31.049-31.049h372.575c17.148 0 31.049 13.902 31.049 31.049s-13.902 31.049-31.049 31.049zM819.166 416.497h-372.575c-17.148 0-31.049-13.902-31.049-31.049s13.902-31.049 31.049-31.049h372.575c17.148 0 31.049 13.902 31.049 31.049s-13.902 31.049-31.049 31.049zM819.166 236.419h-372.575c-17.148 0-31.049-13.902-31.049-31.049s13.902-31.049 31.049-31.049h372.575c17.148 0 31.049 13.902 31.049 31.049s-13.902 31.049-31.049 31.049z"  horiz-adv-x="1024" />

    
    <glyph glyph-name="get-watch" unicode="&#59024;" d="M372.98 373.712c0-18.111 3.603-36.22 10.533-52.953 6.929-16.738 17.186-32.086 30-44.899 12.807-12.807 28.157-23.065 44.893-29.994 16.732-6.934 34.841-10.532 52.957-10.532 18.112 0 36.221 3.598 52.954 10.532 16.737 6.93 32.085 17.186 44.899 29.994 12.807 12.812 23.065 28.161 29.994 44.899 6.934 16.732 10.538 34.843 10.538 52.953 0 18.117-3.603 36.226-10.538 52.957-6.93 16.738-17.186 32.086-29.994 44.896-12.813 12.813-28.162 23.07-44.899 30-16.732 6.933-34.843 10.532-52.954 10.532-18.115 0-36.225-3.599-52.957-10.532-16.737-6.93-32.084-17.186-44.893-30-12.813-12.806-23.071-28.157-30-44.896-6.93-16.731-10.533-34.839-10.533-52.957v0zM372.98 373.712zM1009.322 407.148c0 0-0.574 13.179-122.571 127.207-174.382 150.8-329.818 172.451-445.427 158.144-115.611-14.306-202.61-76.557-209.566-80.428-54.907-30.546-138.422-112.125-166.263-141.127-27.835-28.996-43.693-41.373-52.969-60.319-22.041-45.238 8.121-90.474 8.121-90.474l76.94-77.333c0 0 173.227-191.613 400.578-191.613s335.231 97.659 380.857 133.226c45.623 35.573 101.684 100.148 130.302 138.423 20.109 42.922 0 84.294 0 84.294v0zM511.363 141.37400000000002c-128.32 0-232.343 104.022-232.343 232.339 0 128.321 104.023 232.343 232.343 232.343 128.318 0 232.339-104.022 232.339-232.343 0-128.317-104.021-232.339-232.339-232.339v0zM511.363 141.37400000000002z"  horiz-adv-x="1024" />

    
    <glyph glyph-name="queren" unicode="&#58911;" d="M512-96C246.896-96 32 118.896 32 384 32 649.104 246.896 864 512 864 777.104 864 992 649.104 992 384 992 118.896 777.104-96 512-96ZM792.832 536.832C780.704 548.96 761.024 548.96 748.896 536.832L447.536 235.472 276.032 406.976C264.16 418.864 244.896 418.864 233.024 406.976 221.136 395.104 221.136 375.84 233.024 363.968L419.664 177.328C421.12 174.416 422.688 171.536 425.12 169.104 437.232 156.976 456.912 156.976 469.04 169.104L792.832 492.896C804.96 505.024 804.96 524.704 792.832 536.832Z"  horiz-adv-x="1024" />

    
    <glyph glyph-name="type-dispute" unicode="&#58935;" d="M157.11 429.049c0 34.273 45.316 87.696 88.892 87.696h321.778l-257.265-435.458c0 0 320.077-64.939 354.818 435.458h129.025c49.739 0 71.905-53.945 71.905-103.824v-477.414h-96.191v364.517c0 19.941-20.015 26.572-39.909 26.572-19.895 0-39.909-6.631-39.909-26.572v-364.517h-435.928v128.937h-8.323c-49.739 0-88.892 24.438-88.892 74.3l0 290.305zM318.793 225.103v113.587h-64.468v-113.587h64.468zM520.179 541.945c-78.731 0-145.153 66.216-145.153 145.153 0 78.955 66.422 145.153 145.153 145.153 78.74 0 145.153-66.197 145.153-145.153-0.001-78.937-66.413-145.153-145.153-145.153z"  horiz-adv-x="1024" />

    
    <glyph glyph-name="marriage" unicode="&#58992;" d="M306.925345 541.581991c76.259848 0 144.376225 68.116377 144.376225 144.376225S383.185192 830.334441 306.925345 830.334441s-144.376225-68.116377-144.376225-144.376225S230.665497 541.581991 306.925345 541.581991zM707.971323 541.581991c76.259848 0 144.376225 68.116377 144.376225 144.376225S784.231171 830.334441 707.971323 830.334441s-144.376225-68.116377-144.376225-144.376225S631.711476 541.581991 707.971323 541.581991zM964.020954 187.31338600000004l-51.414997 195.184401c-4.557806 54.558593-46.592155 85.011162-96.93268 85.011162L612.588953 467.508949c-53.754275 0-97.119945-37.752836-97.119945-96.251158 0 58.498322-43.788296 96.251158-97.543593 96.251158L210.674187 467.508949c-50.340525 0-91.693352-28.719088-96.251158-83.277682L66.296939 193.26288799999998c-5.418406-64.854077 36.410258-126.800941 96.251158-126.800941l56.33096 0 0-128.334877 593.548294 0L812.42735 66.46297000000004l55.961546 0C928.229796 66.46297000000004 969.43936 122.45930899999996 964.020954 187.31338600000004zM451.30157 252.82851800000003c-11.479449-9.66308-22.889313-32.963763-16.041348-48.125067 5.034666-11.146874 33.742499-7.052626 48.125067-16.042371l32.083719-64.167438c3.595898-19.058055-18.138102-49.972135-28.064172-73.472362-52.728922 37.820374-164.438143 122.233925-164.438143 201.807239 0 97.432053 94.563726 158.089551 176.459944 96.251158C499.42766 349.07967599999995 501.283937 294.89970600000004 451.30157 252.82851800000003zM515.469008 28.24248399999999c0 0 63.170738 128.513956-0.211824 176.360683-23.74889 17.928325-37.985126 11.68718-31.871895 32.184003 2.515287 8.43409 26.104541 23.916712 32.083719 32.083719 15.640212 21.358447 14.607696 54.42147 16.042371 80.208786 60.494793 54.659901 176.459944-1.341554 176.459944-96.251158C707.971323 147.97033199999998 515.469008 28.24248399999999 515.469008 28.24248399999999z"  horiz-adv-x="1024" />

    
    <glyph glyph-name="type-jusrerum" unicode="&#58936;" d="M453.541 733.867c-13.641-11.487-28.256-25.526-43.845-42.118-12.991-14.677-27.606-33.024-43.845-55.041-16.239-22.016-32.478-48.34-48.716-78.972-16.889-30.632-29.554-60.305-37.998-89.023-8.444-28.717-14.29-54.243-17.537-76.578-3.897-26.164-5.846-50.733-5.846-73.707-6.496 5.105-13.315 9.572-20.461 13.401-6.496 3.191-13.965 6.381-22.409 9.572-8.444 3.191-17.213 5.425-26.306 6.701-18.837 2.552-35.887 2.074-51.152-1.436-15.265-3.51-27.768-8.136-37.511-13.88-9.093-6.381-16.563-10.051-22.409-11.008-5.846-0.957-8.769 3.35-8.769 12.922 0 21.697 3.248 43.554 9.743 65.57 6.496 22.016 14.29 42.756 23.384 62.22 9.093 19.463 18.35 36.694 27.768 51.69 9.419 14.997 17.050 26.324 22.896 33.982 29.23 39.565 61.219 71.313 95.97 95.244s67.715 42.597 98.893 55.998c35.727 15.953 71.776 27.441 108.15 34.46zM569.484 733.867c36.374-6.381 72.424-17.55 108.149-33.503 30.528-13.401 63.493-32.227 98.893-56.476 35.4-24.25 67.715-55.839 96.944-94.765 5.846-7.657 13.315-18.985 22.409-33.982s18.187-32.227 27.281-51.69 17.050-40.204 23.871-62.22c6.82-22.016 10.23-43.873 10.23-65.57 0-12.125-3.085-17.55-9.256-16.273s-13.478 5.744-21.922 13.401c-7.145 5.744-17.7 10.53-31.665 14.358-13.965 3.829-31.341 4.786-52.126 2.871-9.743-1.276-18.999-3.67-27.768-7.18-8.769-3.51-16.726-6.86-23.871-10.051-7.795-4.467-15.265-8.934-22.409-13.401-0.65 23.612-2.923 48.18-6.82 73.707-3.897 22.336-9.906 47.702-18.025 76.1-8.119 28.398-20.623 58.231-37.511 89.501-16.889 30.632-33.289 56.796-49.203 78.493-15.913 21.697-30.367 39.884-43.357 54.562-15.588 16.593-30.203 30.632-43.844 42.118v0zM511.026 830.548c12.341 0 22.084-8.296 29.23-24.888 1.948-5.105 4.547-11.806 7.795-20.102s6.496-16.273 9.743-23.931c3.248-8.934 7.145-18.187 11.692-27.759-7.795 4.467-15.265 8.615-22.409 12.444-6.496 3.191-12.991 6.222-19.486 9.094-6.495 2.871-12.017 4.307-16.563 4.307-4.547 0-10.068-1.276-16.563-3.829-6.495-2.552-12.666-5.425-18.512-8.615-7.145-3.829-14.615-8.296-22.409-13.401 3.898 9.572 7.47 19.145 10.717 28.717 3.248 7.657 6.333 15.635 9.256 23.931 2.923 8.296 5.359 14.997 7.307 20.102 3.898 8.934 8.606 15.156 14.128 18.666 5.52 3.509 10.879 5.264 16.075 5.264v0zM485.641 304.511c5.196 0 12.368 16.532 18.538 17.489 6.171 0.957 14.411 3.56 19.608 2.283 5.846-1.915 20.095-2.024 20.095-5.853v-284.297c0-28.078-7.821-51.211-19.838-69.4-12.017-18.187-36.144-27.281-70.57-27.281-17.537 0-32.443 2.712-43.81 8.136-11.367 5.425-20.687 12.125-27.507 20.102-6.82 7.977-11.643 16.592-14.241 25.846-2.598 9.253-3.954 17.708-3.954 25.367 0 10.849 3.219 18.666 9.715 23.452 6.496 4.786 11.678 7.499 15.575 8.136 5.196 0 11.035-2.234 17.53-6.701s10.064-10.849 10.714-19.145c0.65-10.849 3.409-20.261 8.28-28.238 4.872-7.977 13.802-11.966 26.793-11.966 16.239 0 22.057 5.425 25.955 16.273 3.898 10.849 1.596 25.526 1.596 44.033l0 261.764h5.522zM511.026 733.867c1.299 0 3.085-0.16 5.359-0.479 2.274-0.319 6.333-2.871 12.179-7.657s13.641-12.603 23.384-23.452c9.743-10.849 23.059-26.802 39.947-47.861s31.341-41.959 43.357-62.699c12.017-20.74 22.247-40.523 30.691-59.349 8.444-18.826 15.265-35.897 20.461-51.211 5.196-15.316 9.094-28.078 11.692-38.289 1.948-7.020 4.547-16.273 7.795-27.759 3.248-11.487 6.171-23.292 8.769-35.418 2.598-12.125 4.547-23.133 5.846-33.024 1.3-9.891 0.65-16.432-1.948-19.623-7.145-8.934-14.452-11.327-21.922-7.18s-18.674 10.689-33.614 19.623c-7.795 4.467-17.863 8.615-30.204 12.444-12.341 3.829-25.332 7.18-38.973 10.051-13.641 2.871-27.606 5.105-41.895 6.701s-27.281 2.394-38.973 2.394c-24.033 0.639-49.203-1.915-75.51-7.657-26.306-5.744-47.904-12.125-64.792-19.145-16.239-7.020-27.28-13.401-33.126-19.145s-12.341-7.657-19.487-5.744c-8.444 2.553-12.504 12.603-12.179 30.153 0.324 17.55 6.658 48.021 18.999 91.415 7.795 28.717 16.076 53.605 24.845 74.663 8.769 21.059 17.7 39.725 26.793 55.998 9.094 16.273 18.025 30.791 26.793 43.554 8.769 12.763 17.050 24.569 24.845 35.418s16.076 21.378 24.845 31.588c8.769 10.211 17.050 19.145 24.845 26.802 7.795 7.657 14.452 13.72 19.974 18.187 5.521 4.468 9.255 6.701 11.204 6.701v0z"  horiz-adv-x="1024" />

    
    <glyph glyph-name="result" unicode="&#58891;" d="M967.853 180.442l-199.771-234.28c-6.84-8.007-16.567-12.16-26.38-12.16-7.423 0-14.897 2.369-21.189 7.265l-134.014 103.86c-15.112 11.714-17.863 33.444-6.142 48.55 11.707 15.113 33.458 17.863 48.578 6.149l107.885-83.614 178.329 209.138c12.406 14.551 34.272 16.301 48.823 3.889 14.551-12.406 16.293-34.243 3.88-48.794zM676.54 235.608h-399.794c-19.123 0-34.625 15.494-34.625 34.603 0 19.123 15.502 34.617 34.625 34.617h399.802c19.123 0 34.632-15.494 34.632-34.617 0-19.109-15.517-34.603-34.64-34.603zM676.54 603.24h-399.794c-19.123 0-34.625 15.494-34.625 34.611 0 19.109 15.502 34.603 34.625 34.603h399.802c19.123 0 34.632-15.494 34.632-34.603 0-19.117-15.517-34.611-34.64-34.611zM676.54 419.416h-399.794c-19.123 0-34.625 15.502-34.625 34.617 0 19.109 15.502 34.603 34.625 34.603h399.802c19.123 0 34.632-15.494 34.632-34.603 0-19.117-15.517-34.617-34.64-34.617zM811.317 720.55c0 26.82-21.817 48.629-48.643 48.629h-558.634c-26.835 0-48.658-21.809-48.658-48.629v-653.551c0-26.82 21.823-48.629 48.658-48.629h300.607v-64.836h-300.607c-62.589 0-113.508 50.897-113.508 113.45v653.565c0 62.56 50.918 113.45 113.508 113.45h558.634c62.583 0 113.493-50.889 113.493-113.45v-422.827h-64.85v422.827z"  horiz-adv-x="1024" />

    
    <glyph glyph-name="upload" unicode="&#58989;" d="M875.162 527.722h-134.171v-55.872h134.171c30.857 0 55.872-25.017 55.872-55.87v-397.354c0-30.855-25.015-55.871-55.872-55.871h-726.325c-30.857 0-55.872 25.015-55.872 55.871v397.355c0 30.853 25.015 55.87 55.872 55.87h134.171v55.872h-134.171c-61.71 0-111.741-50.034-111.741-111.741v-397.354c0-61.709 50.032-111.744 111.741-111.744h726.323c61.713 0 111.745 50.035 111.745 111.744v397.353c0.002 61.707-50.032 111.741-111.743 111.741zM328.452 626.942l155.612 155.635v-523.001c0-15.439 12.493-27.935 27.935-27.935s27.935 12.495 27.935 27.935v519.78l152.093-152.386c5.481-5.483 12.63-8.211 19.776-8.211 7.149 0 14.297 2.727 19.754 8.156 10.912 10.914 10.912 28.591 0.026 39.502l-201.36 201.77c-5.212 5.265-12.358 8.21-19.754 8.21-0.027 0-0.027 0-0.027 0-7.391 0-14.484-2.945-19.724-8.185l-201.794-201.769c-10.914-10.911-10.914-28.59 0-39.502 10.938-10.913 28.617-10.913 39.527-0.001z"  horiz-adv-x="1024" />

    
    <glyph glyph-name="weibiaoti1" unicode="&#59153;" d="M765.125 805.875L258.875 805.875C166.0625 805.875 90.125 729.9375 90.125 637.125l0-506.25c0-92.8125 75.9375-168.75 168.75-168.75l506.25 0c92.8125 0 168.75 75.9375 168.75 168.75L933.875 637.125C933.875 729.9375 857.9375 805.875 765.125 805.875zM385.4375 805.875l253.125 0 0-210.9375-126.5625 86.484375-126.5625-82.265625L385.4375 805.875zM676.53125 352.359375l-63.28125-61.171875c-4.21875-4.21875-6.328125-8.4375-4.21875-14.765625l14.765625-84.375c2.109375-14.765625-12.65625-25.3125-25.3125-16.875L520.4375 215.25c-4.21875 2.109375-10.546875 2.109375-16.875 0L425.515625 173.0625c-12.65625-6.328125-27.421875 4.21875-25.3125 16.875l14.765625 84.375c0 6.328125 0 10.546875-4.21875 14.765625l-63.28125 61.171875c-10.546875 10.546875-4.21875 27.421875 8.4375 29.53125l86.484375 12.65625c6.328125 0 10.546875 4.21875 12.65625 8.4375l37.96875 78.046875c6.328125 12.65625 25.3125 12.65625 31.640625 0l37.96875-78.046875c2.109375-4.21875 8.4375-8.4375 12.65625-8.4375l86.484375-12.65625C680.75 379.78125 684.96875 362.90625 676.53125 352.359375z"  horiz-adv-x="1024" />

    
    <glyph glyph-name="type-consumer" unicode="&#58937;" d="M821.761 343.96c22.581 45.251 35.611 95.949 35.611 149.775 0 187.925-154.629 340.264-345.369 340.264-190.747 0-345.37-152.339-345.37-340.263 0-53.827 13.024-104.525 35.608-149.768l-140.189-239.224c0 0 88.906-17.836 179.107-36.4 60.125-66.942 119.991-133.736 119.991-133.736l128.895 219.952c7.297-0.453 14.543-1.090 21.957-1.090 7.412 0 14.658 0.638 21.954 1.090l128.896-219.952c0 0 59.866 66.794 119.991 133.736 90.202 18.564 179.108 36.4 179.108 36.4l-140.189 239.215zM512 248.798c-139.195 0-252.035 112.85-252.035 252.035 0 139.192 112.839 252.035 252.035 252.035s252.035-112.843 252.035-252.035c0-139.184-112.84-252.035-252.035-252.035z"  horiz-adv-x="1024" />

    
    <glyph glyph-name="type-contract" unicode="&#58938;" d="M848.256 713.216h-54.116v61.1c0.055 30.601-23.456 56.46-54.061 56.46h-550.259c-30.549 0-54.060-25.859-54.060-56.46v-663.072c0-30.605 23.511-56.464 54.060-56.464h63.498v-56.46c0-30.489 23.567-61.094 54.118-61.094h526.747c30.546 0 54.056 25.855 54.056 56.46v663.071c0 30.606-23.511 56.46-54.056 56.46l14.074 0zM429.682 713.216h216.349c14.079 0 25.86-4.691 25.86-18.82 0-16.417-11.781-28.203-25.86-28.203l-216.349-0c-14.128 0-25.854 11.785-25.854 28.203-2.351 14.129 11.725 18.82 25.854 18.82v0 0 0zM267.447 548.579h378.583c14.079 0 25.86-4.691 25.86-18.821 0-16.417-11.781-28.202-25.86-28.202l-378.583 0c-14.129 0-28.202 11.785-28.202 28.202 2.343 14.13 14.074 18.821 28.202 18.821v0 0 0zM267.447 383.998h378.583c14.079 0 25.86-4.691 25.86-18.821 0-16.471-11.781-28.201-25.86-28.201l-378.583 0c-14.129 0-28.202 11.73-28.202 28.201 2.343 14.13 14.074 18.821 28.202 18.821v0 0 0zM267.447 172.395c-14.129 0-28.202 4.691-28.202 18.765 2.343 16.477 14.073 28.257 28.202 28.257h378.583c14.079 0 25.86 0 25.86-16.471 0-16.477-11.781-30.551-25.86-30.551l-378.583 0zM843.565-15.753h-543.224v70.592h444.429c30.605 0 49.425 25.855 49.425 56.46v554.84h47.022v-679.545l2.348-2.346zM843.565-15.753z"  horiz-adv-x="1024" />

    
    </font>
</defs>
</svg>
